<?xml version="1.0" encoding="utf-8"?>
<!-- Generator: Adobe Illustrator 23.0.6, SVG Export Plug-In . SVG Version: 6.00 Build 0)  -->
<svg version="1.1" id="Layer_1" xmlns="http://www.w3.org/2000/svg" xmlns:xlink="http://www.w3.org/1999/xlink" x="0px" y="0px"
	 viewBox="0 0 864 864" enable-background="new 0 0 864 864" xml:space="preserve">
<g>
	<path d="M276.3432,221.7548c13.2881,12.5769,16.6378-12.869,2.0777-12.9348c-30.8107-0.1354-44.2548,3.124-57.2348-11.0139
		c-12.9794-14.1401-12.9313-41.2303-16.994-35.7567c-4.0645,5.4715-4.8806,42.2765,12.0992,51.6584
		C233.2727,223.0893,268.6739,214.4943,276.3432,221.7548z"/>
	<path d="M274.042,202.0451c11.8013-3.9542,12.9636-9.7935,6.206-8.5636c-23.4632,4.272-37.0863-9.258-40.8822-20.9061
		c-3.7964-11.6491-20.7391,14.5534-12.0846,22.8835C238.8075,206.5519,259.3579,206.9653,274.042,202.0451z"/>
	<path d="M242.285,139.3383c0.4877-0.414,14.445-11.5538,31.9779,0.1981c15.1844,10.1772,11.6815,23.9774,6.0593,35.1959
		c-0.9303,1.8546,0.5701,2.5478,2.3561,1.4492c13.6565-8.4005,16.3867-27.8742,6.2159-44.2863
		c-10.8397-17.4915-35.6697-10.0629-45.0405,2.4003C241.5533,137.3554,240.1659,141.1391,242.285,139.3383z"/>
	<path d="M248.6222,175.3452c-2.8138,4.7081,12.264,10.6051,19.8626,12.4022c7.5968,1.7982,7.0962-16.1233,10.9778-25.3493
		c3.8818-9.2267-5.0234-19.6085-15.2601-23.5847c-11.1345-4.3241-13.8292,3.798-3.0822,5.0306
		c10.7462,1.2299,11.7003,13.3435,5.9213,26.5002C261.262,183.5001,251.4355,170.6364,248.6222,175.3452z"/>
	<path d="M264.9472,152.6808c-2.1752-3.364-8.9046-3.3249-12.2888-0.8659c-3.3851,2.4619-6.1904,9.8915-3.0128,9.6847
		c3.1789-0.2058,6.3443-10.4471,13.5154-6.8714C270.3313,158.2036,267.3245,156.3594,264.9472,152.6808z"/>
	<path d="M301.2961,186.2183c-14.9251,6.7808-21.5516,31.3339-6.1463,18.67c6.9185-5.6867,16.6-11.5164,25.5915-17.0772
		c-0.496,2.1982-0.9323,4.3649-1.3048,6.4882c-8.8316,4.5145-18.8815,11.8603-22.0533,19.4487
		c-11.2122,26.8251-15.2818,17.7833-35.3329,9.3527c-19.6449-8.2599-42.0362,18.184-23.4595,10.511
		c18.5749-7.6722,17.4351,11.1727,46.7409,8.0337c14.8359-1.5887,26.5614-10.1765,34.8619-20.4602
		c0.856,1.8296,1.974,3.3341,3.4063,4.4221c13.7382,10.4366,65.617,9.0496,97.1895,16.3734
		c31.5707,7.3255,3.8848-23.3842-22.6498-22.5646c-26.5338,0.8187-57.6018-18.8127-53.5508-38.8252
		c0.8361-4.1329,0.8363-8.9876,0.3464-13.6272c0.1129-1.3916-0.1258-2.9481-0.6633-4.628
		c-0.7495-4.1859-1.8347-7.8916-2.9663-10.2855c-1.3981-2.9579-3.4763-4.1512-5.3816-3.5485
		c-5.0301-6.2148-11.4662-12.5024-17.463-17.4606c-2.606-2.1557-4.8936-0.9622-4.7873,2.3795
		c0.1247,3.929,2.5185,11.9678,6.271,16.6988C327.8597,160.0964,316.2206,179.4373,301.2961,186.2183z"/>
	<path d="M276.2407,189.1957c1.4817,4.6338,15.0306-2.7798,30.4861-12.7095c15.4553-9.929,8.612-27.6386-6.2058-42.2131
		c-5.7934-5.6993-8.275-9.487-1.0346,9.8344C308.6991,168.697,274.7595,184.5628,276.2407,189.1957z"/>
	<path d="M261.2978,169.2872c3.0274-3.9454,7.1423-7.7864,3.1379-10.087c-4.0047-2.3024-9.7223,0.177-9.6529,2.8446
		c0.0704,2.6671-7.205,9.0911-8.308,0.1599c-1.1046-8.931,5.1652-16.0965,11.6212-13.724c6.457,2.3745,3.2492-3.343-0.7584-3.866
		c-4.3946-0.5717-18.1303,5.2708-16.4821,15.9083C242.5029,171.1608,258.2706,173.2318,261.2978,169.2872z"/>
	<path d="M605.0911,177.9012c-4.4716-4.7631-7.0076,0.3818-0.2592,10.0881c8.3969,12.0775,24.4349,23.3699,39.8089,21.3553
		c11.5442-1.5132,13.9099-31.2246,4.1506-24.4158C639.0331,191.7373,620.6163,194.4403,605.0911,177.9012z"/>
	<path d="M617.4998,180.1396c6.8959,2.9116,21.9482,6.8972,22.5504,1.6888c0.603-5.2087-14.5043-0.8729-11.2205-14.2498
		c3.2849-13.3773,11.1323-22.1489,20.1143-17.0231c8.9842,5.1241,11.683-2.6411,0.5853-5.6079
		c-10.2031-2.7271-23.1449,0.2214-25.5798,9.5062C621.5146,163.7379,610.6049,177.2298,617.4998,180.1396z"/>
	<path d="M594.7201,149.8792c6.0478,16.3637,12.1078,29.7164,15.9681,26.9919c3.8591-2.7242-12.9097-34.0929,8.6124-47.7882
		c16.912-10.7602,12.7803-9.251,4.9803-8.1434C604.3323,123.7702,588.6721,133.516,594.7201,149.8792z"/>
	<path d="M586.9384,178.2498c4.4036,18.437,13.7299-4.1785,6.2404-17.8223c-7.4888-13.6435-5.0764-35.0848,6.8667-38.2815
		c5.6628-1.5164,12.2236-6.3427,14.6269-9.2921c2.0443-2.5086,0.9869-4.7182-2.2821-4.5337
		c-17.3214,0.9747-40.5826,6.0455-42.3625,14.8124C568.0076,133.08,582.5337,159.8125,586.9384,178.2498z"/>
	<path d="M647.3947,170.6083c2.3209,1.9543,4.5281-5.3412,3.3721-9.1459c-1.157-3.8018-6.3065-7.6337-9.954-6.2769
		c-3.9875,1.4843-7.3817,1.2031,0.2293,2.5058C648.6538,158.9943,645.0723,168.6542,647.3947,170.6083z"/>
	<path d="M597.4874,190.7227c-11.2296-8.175-23.599,13.2754-5.9994,11.1157c10.1586-1.2477,32.3209,25.3585,50.8826,27.7414
		c18.5607,2.3817,39.5482-26.3683,39.6375-32.8699c0.0918-6.5023-15.7807,14.3468-34.061,17.8823
		C629.6677,218.1256,621.2485,208.0253,597.4874,190.7227z"/>
	<path d="M633.8652,170.011c0.0101,4.7422,13.3458,12.0583,20.8593,4.8126c7.5139-7.2448,0.3878-19.4954-3.3257-21.5388
		c-3.3876-1.8621-9.2108,0.72-2.8533,2.5429c6.3555,1.8237,6.9664,10.8734,0.8723,17.1138
		c-6.0929,6.2415-7.912-2.8063-6.2917-4.8164c1.6199-2.0111-1.3185-7.147-5.7487-7.6399
		C632.9484,159.9912,633.8555,165.2681,633.8652,170.011z"/>
	<path d="M429.8232,146.765c7.7039-10.2506,19.831,2.2735,24.5681,0.3125c4.7361-1.9584-4.7956-10.6827-11.4959-11.8295
		c-6.6969-1.1435-16.4324,3.5797-17.0864,9.9767C425.0959,152.2192,422.1203,157.0149,429.8232,146.765z"/>
	<path d="M430.8301,128.1854c-5.3947,3.6009-5.8006,14.1259,1.7601,6.115c7.5607-8.0075,21.8947-2.1248,26.895,11.542
		c5.0031,13.666-10.2338,9.5671-12.1014,5.67c-1.8694-3.897-11.9471-3.4125-16.0239,2.7525
		c-4.0775,6.1627,4.6938,8.7806,11.9736,12.3212c7.2788,3.5399,28.4935-10.6462,23.0157-27.1603
		C460.8731,122.9117,436.7469,124.2397,430.8301,128.1854z"/>
	<path d="M416.6451,124.6934c-11.83,13.0057-17.0102,34.3054-4.5989,44.8571c12.4105,10.5509,24.9197,36.7569,34.55,28.7677
		c9.6335-7.989,27.0284-27.2039,19.4937-31.9962c-7.5345-4.7941-12.2113,20.7399-30.2608,5.8683
		c-18.0493-14.873-25.6165-33.0235-11.024-42.4299C439.3967,120.3498,429.5132,110.548,416.6451,124.6934z"/>
	<path d="M558.5421,167.0054c-0.6635,5.8543-0.6318,12.1184,0.4202,18.3071c-2.4536,10.6291-10.2227,21.0699-26.4412,30.8744
		c-14.9495,9.0389-0.0564,20.9847,29.9889,1.2441c3.3754-2.2178,6.2137-4.6123,8.5865-7.1389
		c0.5788,0.5974,1.1774,1.1841,1.8016,1.7566c20.6815,18.969,30.8726,3.8407,40.6439,20.2314
		c9.772,16.3926,8.0918-16.5824-11.8584-21.3323c-14.2139-3.3839-22.6079-2.1525-23.9601-10.2593
		c8.951-18.6592,0.2222-41-7.2098-54.2318c-9.8743-17.5756,6.1041-24.0478-3.13-37.9918
		c-9.2326-13.9421-32.6165-15.7231-44.8361-18.7544c-18.6109-4.6131,20.6976,42.0674,31.0302,63.7601
		C555.7103,157.9473,557.4403,162.4704,558.5421,167.0054z"/>
	<path d="M522.2471,179.234c-8.2847,29.6116-30.083,34.4587-74.4252,56.5365c-20.9532,10.4359,2.6652,44.7608,12.5466,17.1818
		c5.7021-15.9196,63.1113-28.6649,80.6793-54.2578c17.5654-25.5922-10.785-78.101-20.6873-83.1064
		C510.4592,110.5786,530.5293,149.62,522.2471,179.234z"/>
	<path d="M442.6608,103.7241c-22.7181-11.3217-64.0181-4.4019-66.7396,28.5267c-2.5535,30.897,15.762,57.0469,41.6626,59.4649
		c3.3873,0.3161,5.0398-1.7494,2.3286-3.7637c-16.3922-12.1889-31.6335-29.6066-17.245-55.0709
		c16.6133-29.4037,44.9702-23.2481,45.9795-22.9972C453.033,110.9763,448.2381,106.5041,442.6608,103.7241z"/>
	<path d="M449.136,222.8882c24.8133-3.3321,54.1505-18.5238,62.5864-42.7109c6.3333-18.1624-37.4507-43.9243-34.3261-24.425
		c3.1247,19.4977-6.5365,48.689-43.5342,59.1914C423.2067,217.969,429.1943,225.5662,449.136,222.8882z"/>
	<path d="M481.9789,244.7423c-22.6979,26.4017-21.8923,42.3341-57.8701,11.6041c-19.6483-16.7821-75.6412-14.0855-70.0587-6.2953
		c16.1718,22.567,63.4473,54.2643,108.0388,37.9757c44.5889-16.2862,29.0316-42.6589,61.4888-44.7849
		C556.0383,241.116,504.217,218.8758,481.9789,244.7423z"/>
	<path d="M360.9059,143.9384c-10.6132,31.5468-7.409,61.9519,22.2147,65.2969c29.6245,3.346,54.6414,4.4166,53.3574-3.3196
		c-1.2841-7.7346-61.9529-6.5149-66.8189-48.5266C365.8378,124.3773,365.0547,131.603,360.9059,143.9384z"/>
	<path d="M351.0262,146.3536c3.7559-8.5445-7.0392-46.3853,64.3205-58.0689c71.3606-11.6859,22.869,25.9443,61.1002,43.8191
		c41.5726,19.4396,40.9663,27.8194,33.826-7.2842c-5.542-27.2455-4.6182-83.7129-37.1721-77.7379
		c-32.5531,5.9777-36.9383,18.13-102.8013,33.9894c-61.78,14.8781-27.9629,43.6982-24.2271,63.7007
		C346.5832,147.5106,349.7348,149.2923,351.0262,146.3536z"/>
	<path d="M137.8167,191.3247c9.8706,4.9567,22.1248,4.5602,31.9541-0.2909c0.7615-0.3875,1.8506-0.8221,1.4438-1.9196
		c-0.4305-4.4268-1.2516-8.8254-1.4268-13.2739c0.2132-4.3811,1.5405-8.6101,2.6622-12.8279
		c0.3437-2.4294-2.4892-3.6471-4.1795-4.7741c-4.8609-2.1753-10.2164-4.567-15.6714-3.7275l0.0024,0.0033
		c-0.3636,0.056-0.7278,0.1265-1.0922,0.2121c-11.1553,2.8403-20.3678,12.2623-32.5441,11.0515
		c-1.2613-0.0467-3.702-1.722-3.9234,0.2808l0.1102,0.7606C120.8777,176.3574,127.3716,186.2366,137.8167,191.3247z"/>
	<path d="M703.1887,182.3269c-1.1636,1.2728-3.2542,2.851-2.4617,4.793c1.8107,3.2662,3.7941,6.5002,4.8868,10.0844
		c0.7853,3.7178,1.0256,7.5244,1.595,11.2758c-0.1072,0.9905,0.8854,1.1312,1.5968,1.2986
		c9.1519,2.0385,19.3797-0.0987,26.5145-6.1879c7.5829-6.3137,10.8929-15.799,13.6382-24.8474l-0.0679-0.6519
		c-0.6022-1.6134-2.2724,0.2646-3.3068,0.557c-9.8273,3.4523-19.4244-2.4944-29.2535-2.6013
		c-0.3196,0.0023-0.6359,0.0172-0.9485,0.044l0.0012-0.0032C710.6913,176.4905,706.7578,179.548,703.1887,182.3269z"/>
	<path d="M357.2058,751.136c-0.7489-2.5496-1.9082-5.1066-3.6126-7.374c-1.6842-2.2744-3.9012-4.1971-6.3089-5.5817
		c-2.4082-1.4006-4.9634-2.3257-7.4829-2.9857c-5.0612-1.2767-10.0129-1.6238-14.8308-1.8411
		c-4.8213-0.1869-9.5349-0.2151-14.1451-0.2834c-2.306-0.0436-4.5818-0.098-6.8289-0.1814
		c-2.2432-0.1147-4.458-0.2378-6.6245-0.4602c-1.0836-0.1102-2.1544-0.2579-3.2104-0.4164
		c-1.0553-0.143-2.1022-0.3373-3.1614-0.5552c-2.0972-0.447-4.1515-0.9986-6.1176-1.6803
		c-3.9229-1.3706-7.5356-3.3374-10.1588-6.0371c-1.3018-1.3486-2.3464-2.8702-3.0065-4.5155
		c-0.6382-1.6407-0.9562-3.4058-0.7232-5.0923c0.2176-1.681,0.9597-3.2339,2.1041-4.3018c0.5738-0.537,1.2619-0.9399,2.0462-1.1776
		c0.1947-0.0648,0.3986-0.1047,0.6041-0.1515c0.2053-0.0301,0.4084-0.0684,0.6997-0.0833c0.5393-0.0474,1.0739-0.0715,1.6126-0.1014
		c2.1463-0.0819,4.2661,0.1888,6.2195,0.9431c0.9688,0.3879,1.8883,0.916,2.6927,1.6105c0.8091,0.6696,1.53,1.5671,1.9764,2.4967
		l0.0351,0.0732c0.1134,0.2361,0.3966,0.3356,0.6327,0.2222c0.1926-0.0925,0.2941-0.2986,0.2635-0.4994
		c-0.3994-2.6034-2.1049-4.7976-4.253-6.3122c-2.1619-1.5259-4.7184-2.3256-7.2335-2.7727
		c-0.6309-0.1048-1.2665-0.1956-1.8997-0.2449c-0.2947-0.0369-0.6772-0.0499-1.0575-0.0579
		c-0.3778,0.008-0.7584,0.0185-1.1395,0.0652c-1.5257,0.1609-3.0535,0.6873-4.3818,1.5208c-2.7115,1.653-4.4596,4.436-5.2867,7.3002
		c-0.8288,2.8911-0.7926,5.9636-0.0399,8.7905c0.7444,2.8347,2.1317,5.4311,3.8834,7.634c1.7404,2.2221,3.8256,4.0689,6.0394,5.6106
		c2.2131,1.549,4.5723,2.7841,6.973,3.795c2.3973,1.0361,4.8576,1.7937,7.322,2.4205c2.4464,0.629,5.0079,1.0983,7.4889,1.358
		c2.4939,0.2908,4.9628,0.4384,7.4048,0.4702c2.4391,0.0519,4.8524,0.009,7.2339-0.0917c4.765-0.1709,9.4238-0.5535,13.9794-0.6831
		c4.542-0.1318,9.0266-0.0748,13.1183,0.7617c4.0887,0.8278,7.6472,2.4858,9.9835,5.3766c1.1904,1.429,2.1039,3.1591,2.7673,5.0738
		c0.6588,1.9001,1.1007,4.04,1.2954,6.0844c0.1926,2.0494,0.1143,4.0632-0.3498,5.9189c-0.4704,1.8501-1.3255,3.5305-2.5842,4.9166
		c-2.503,2.8015-6.6066,4.3011-10.811,4.4835c-4.2086,0.1964-8.6331-0.7525-12.2566-2.9243
		c-1.8007-1.0872-3.3809-2.5021-4.4613-4.2111c-1.089-1.7017-1.633-3.7037-1.5267-5.773c0.1464-2.1033,0.6521-4.3203,1.6389-6.1815
		c0.9709-1.8846,2.4921-3.4581,4.4091-4.382c1.902-0.9418,4.1545-1.2523,6.323-0.9025c2.1516,0.3591,4.2883,1.3647,5.6379,3.0997
		l0.0083,0.0107c0.1617,0.2078,0.4612,0.2453,0.669,0.0836c0.1978-0.1539,0.2403-0.4342,0.1045-0.64
		c-1.4035-2.1145-3.7167-3.4175-6.1202-4.0134c-2.4216-0.5829-5.0553-0.4496-7.4453,0.5102
		c-2.3955,0.9525-4.4267,2.7974-5.745,4.9948c-0.665,1.0966-1.1971,2.2662-1.5856,3.4686
		c-0.3718,1.2231-0.6778,2.3853-0.8344,3.7075c-0.3206,2.6053,0.2158,5.3902,1.5084,7.7301
		c1.2767,2.3566,3.1766,4.2699,5.2866,5.7473c4.2621,2.9354,9.3191,4.3855,14.4635,4.4898
		c2.5768,0.0267,5.2003-0.3185,7.7454-1.1655c2.5364-0.8432,5.0056-2.2316,7.0211-4.2141c2.0255-1.9688,3.5078-4.5091,4.3398-7.158
		c0.8276-2.6559,1.0871-5.3906,0.9615-8.0112C358.344,756.215,357.9522,753.7095,357.2058,751.136z"/>
	<path d="M576.9386,717.1068c-0.0305,0.2008,0.071,0.4069,0.2635,0.4994c0.2361,0.1133,0.5193,0.0139,0.6328-0.2222l0.0351-0.0732
		c0.4465-0.9296,1.1672-1.8272,1.9764-2.4967c0.8045-0.6946,1.7239-1.2227,2.6927-1.6105c1.9534-0.7544,4.0732-1.0251,6.2195-0.9432
		c0.5388,0.0299,1.0734,0.054,1.6127,0.1014c0.2913,0.015,0.4943,0.0532,0.6998,0.0833c0.2054,0.0468,0.4092,0.0868,0.6039,0.1516
		c0.7844,0.2377,1.4725,0.6404,2.0463,1.1775c1.1444,1.0679,1.8864,2.6208,2.1041,4.3018c0.2329,1.6866-0.0849,3.4515-0.7231,5.0923
		c-0.6601,1.6453-1.7048,3.1669-3.0065,4.5154c-2.6232,2.6998-6.236,4.6666-10.1588,6.0371
		c-1.9661,0.6817-4.0204,1.2334-6.1177,1.6803c-1.0591,0.218-2.1061,0.4122-3.1613,0.5552
		c-1.0559,0.1585-2.1268,0.3062-3.2103,0.4164c-2.1666,0.2225-4.3813,0.3456-6.6246,0.4602
		c-2.2471,0.0834-4.5229,0.1379-6.829,0.1815c-4.6101,0.0682-9.3237,0.0965-14.145,0.2834
		c-4.818,0.2173-9.7697,0.5644-14.8309,1.8412c-2.5195,0.6599-5.0747,1.5851-7.4829,2.9856
		c-2.4077,1.3846-4.6248,3.3074-6.3089,5.5818c-1.7044,2.2673-2.8638,4.8243-3.6126,7.3739
		c-0.7463,2.5735-1.1382,5.079-1.2697,7.7099c-0.1255,2.6205,0.134,5.3552,0.9616,8.0112c0.832,2.6488,2.3143,5.189,4.3398,7.158
		c2.0154,1.9824,4.4847,3.3708,7.0211,4.2139c2.545,0.8472,5.1687,1.1923,7.7454,1.1656
		c5.1443-0.1042,10.2014-1.5544,14.4635-4.4898c2.11-1.4774,4.0098-3.3907,5.2866-5.7473c1.2926-2.34,1.8291-5.1249,1.5084-7.7302
		c-0.1567-1.3221-0.4626-2.4843-0.8344-3.7074c-0.3885-1.2024-0.9206-2.3719-1.5856-3.4686
		c-1.3184-2.1973-3.3495-4.0422-5.7451-4.9947c-2.39-0.9598-5.0237-1.0931-7.4452-0.5101
		c-2.4036,0.5959-4.7167,1.8989-6.1201,4.0134c-0.1359,0.2057-0.0935,0.486,0.1045,0.6399
		c0.2077,0.1616,0.5073,0.1242,0.6689-0.0837l0.0082-0.0106c1.3495-1.7351,3.4862-2.7405,5.6379-3.0997
		c2.1685-0.3498,4.421-0.0394,6.3231,0.9025c1.9169,0.9239,3.438,2.4973,4.409,4.382c0.9869,1.8612,1.4927,4.0782,1.639,6.1814
		c0.1062,2.0695-0.4377,4.0715-1.5267,5.7731c-1.0804,1.709-2.6606,3.124-4.4613,4.2111c-3.6235,2.1718-8.048,3.1207-12.2567,2.9243
		c-4.2043-0.1824-8.308-1.682-10.811-4.4835c-1.2586-1.386-2.1138-3.0665-2.5842-4.9165c-0.4641-1.8557-0.5425-3.8696-0.3497-5.919
		c0.1947-2.0443,0.6367-4.1842,1.2953-6.0843c0.6634-1.9148,1.5768-3.6448,2.7673-5.0739c2.3364-2.8907,5.895-4.5487,9.9836-5.3765
		c4.0916-0.8366,8.5762-0.8936,13.1182-0.7617c4.5557,0.1296,9.2144,0.5121,13.9794,0.6831
		c2.3815,0.1007,4.7948,0.1436,7.2338,0.0917c2.4422-0.0318,4.911-0.1794,7.4049-0.4701c2.4809-0.2597,5.0425-0.729,7.4889-1.3581
		c2.4644-0.6268,4.9246-1.3843,7.322-2.4205c2.4007-1.0109,4.7599-2.246,6.973-3.795c2.2139-1.5417,4.299-3.3885,6.0395-5.6106
		c1.7517-2.2029,3.1389-4.7992,3.8834-7.634c0.7526-2.8268,0.7889-5.8993-0.0399-8.7904c-0.8271-2.8643-2.5752-5.6473-5.2868-7.3002
		c-1.3282-0.8336-2.8563-1.3599-4.3818-1.5208c-0.3812-0.0468-0.7616-0.0572-1.1395-0.0652
		c-0.3803,0.0079-0.7628,0.021-1.0575,0.0579c-0.6332,0.0493-1.2689,0.1401-1.8997,0.2448
		c-2.5152,0.4472-5.0716,1.2469-7.2336,2.7728C579.0437,712.3092,577.3381,714.5034,576.9386,717.1068z"/>
	<path d="M407.6595,557.9396c8.605,0.7642,15.4435-0.9413,20.3211-5.075c4.0408-3.4255,5.7879-7.7063,6.5328-10.4788
		c0.6578,2.7629,2.2617,7.0107,6.1652,10.4266c4.034,3.532,9.5443,5.312,16.4177,5.312c1.277,0,2.6013-0.0619,3.9721-0.1848
		c7.2555-0.652,12.7038-3.9073,16.1932-9.6779c8.6853-14.36,2.7852-40.4545-1.2392-50.1536
		c-5.7028-13.7438-40.887-68.9608-41.241-69.517l-0.4179-0.6549l-0.4179,0.6549c-0.3541,0.5562-35.5373,55.7732-41.241,69.517
		c-4.0263,9.703-9.9284,35.8082-1.2363,50.1682C394.9585,554.042,400.4059,557.2934,407.6595,557.9396z M415.8916,497.9101
		c2.579-6.215,18.4718-31.1325,18.4718-31.1325s15.8927,24.9175,18.4718,31.1325s6.2813,25.3686-6.5189,26.5186
		c-11.4741,1.0308-11.8657-8.0458-11.8657-8.0458s-0.6855,9.0577-12.0401,8.0458
		C409.6095,523.2878,413.3126,504.1251,415.8916,497.9101z"/>
	
		<ellipse transform="matrix(0.5235 -0.852 0.852 0.5235 -184.8784 829.7193)" cx="649.3295" cy="580.1408" rx="8.3894" ry="8.3895"/>
	<path d="M666.3138,572.2614c2.9368-0.4841,4.9251-3.2572,4.4411-6.194c-0.4841-2.9368-3.2573-4.925-6.194-4.441
		c-2.9368,0.4841-4.925,3.2573-4.441,6.194C660.6041,570.7572,663.3771,572.7455,666.3138,572.2614z"/>
	<path d="M637.1324,603.0279c2.9368-0.484,4.925-3.2572,4.4409-6.194s-3.2572-4.925-6.194-4.441s-4.9251,3.2572-4.441,6.194
		C631.4223,601.5237,634.1956,603.512,637.1324,603.0279z"/>
	<path d="M649.33,477.7036c-1.3784,2.4273-2.2181,5.0813-2.5805,7.8183c-0.2908,2.7408-0.1583,5.636,1.0265,8.4147
		c0.5854,1.3741,1.4222,2.7138,2.554,3.795l0.4203,0.4019l0.3992,0.3273c0.2662,0.2171,0.5281,0.4352,0.8191,0.6292
		c0.5587,0.4056,1.1575,0.7696,1.7786,1.0923c2.4771,1.3047,5.4941,1.7757,8.1946,1.0571c2.6898-0.6855,5.0636-2.4099,6.3229-4.781
		c0.6165-1.1778,1.0061-2.4761,0.9926-3.7671c0.0017-1.2854-0.2958-2.5245-0.8329-3.5985c-0.0984-0.193-0.3173-0.3101-0.5408-0.2675
		c-0.2713,0.0516-0.4493,0.3134-0.3978,0.5847c0.3889,2.1244-0.1959,4.1698-1.452,5.5513c-1.2579,1.3851-3.0413,2.167-4.7836,2.234
		c-1.7495,0.0508-3.3994-0.5202-4.7523-1.5643c-0.3383-0.2628-0.6634-0.5469-0.9663-0.8644
		c-0.1583-0.1458-0.2997-0.3207-0.4442-0.4882l-0.2167-0.2492l-0.1404-0.2287c-0.3699-0.5949-0.6464-1.2582-0.8016-2.0056
		c-0.6313-3.0281,0.5444-6.8743,2.5832-9.6026c0.499-0.7007,1.0808-1.3189,1.6859-1.871c0.5945-0.5671,1.2463-1.0325,1.913-1.4195
		c1.3394-0.7753,2.7559-1.1878,4.2299-1.2713c0.7394-0.0357,1.4958,0.0182,2.2698,0.1232c0.8566,0.1238,1.8356,0.3209,2.7058,0.5622
		c1.7791,0.4893,3.4546,1.1348,4.9835,1.9761c1.5114,0.8665,2.892,1.8844,4.0824,3.0956c1.1614,1.2311,2.1994,2.5959,2.9615,4.1442
		c0.7715,1.538,1.3403,3.2138,1.639,4.9733c0.1509,0.8792,0.2252,1.7778,0.2477,2.6835c0.0142,0.4533-0.0022,0.9079-0.0184,1.3643
		c-0.0341,0.4735-0.0607,0.9631-0.1217,1.4422c-0.4196,3.8593-1.6835,7.6457-3.7563,10.9992
		c-4.1107,6.7816-11.2598,11.6858-19.1697,14.8076c-3.9632,1.592-8.1326,2.8245-12.4006,3.7506
		c-2.1365,0.4557-4.293,0.8535-6.4679,1.1846c-2.1865,0.3314-4.3172,0.5695-6.6758,0.8936
		c-4.6048,0.6802-9.197,1.8078-13.5541,3.6562c-4.3455,1.8311-8.46,4.4841-11.6533,8.0525
		c-3.2004,3.5579-5.335,7.9867-6.238,12.5659c-0.8716,4.5974-0.7603,9.2688,0.3542,13.7586
		c0.0617,0.2452,0.3019,0.4093,0.5566,0.3693c0.2697-0.0425,0.4539-0.2955,0.4115-0.5652l-0.0068-0.043
		c-1.363-8.6641,0.9559-18.099,7.1451-23.9592c3.0474-2.9471,6.8411-5.0375,10.8856-6.4125
		c4.0491-1.3899,8.3395-2.1243,12.6688-2.4625c2.1147-0.1608,4.4718-0.282,6.7531-0.4863c2.2936-0.2064,4.5869-0.4848,6.8788-0.8291
		c4.5801-0.7093,9.1559-1.7351,13.6417-3.2482c4.4783-1.5142,8.8683-3.5577,12.9329-6.2822
		c4.071-2.701,7.7551-6.2087,10.6326-10.3749c2.8792-4.1642,4.8866-8.9832,5.84-14.0163
		c1.0235-5.0652,0.6924-10.8422-1.5222-15.9372c-2.1522-5.1288-6.2085-9.5453-11.0786-12.1428
		c-1.2119-0.6566-2.4606-1.2184-3.7283-1.7022c-1.2717-0.4596-2.5687-0.8384-3.8665-1.1095
		c-1.3162-0.2891-2.5573-0.4846-3.9351-0.6177c-1.4617-0.1417-2.9667-0.1202-4.465,0.0897
		c-2.9943,0.4102-5.9347,1.5821-8.3057,3.3542C652.5616,473.0271,650.6874,475.2735,649.33,477.7036z"/>
	<path d="M527.2452,697.2032c4.8892-2.166,8.2935-6.2455,10.147-12.1466c7.0098-0.4073,17.6076-3.7719,22.8799-14.4461
		c2.4301,0.7816,5.8247,1.3505,9.495,0.3685c4.8583-1.3011,8.8458-4.8737,11.8525-10.6191
		c0.8871-1.6968,0.2312-3.7922-1.4647-4.6802c-0.0005-0.0002-0.0007-0.0002-0.001-0.0004
		c-0.0104-0.2508-0.0425-0.5035-0.1103-0.7561c-4.9956-18.6484-1.9734-39.2356-1.9425-39.4407
		c0.0414-0.2741,0.0409-0.5433,0.0186-0.808c0.6332-1.0134,0.7374-2.3197,0.1381-3.4524c-2.848-5.3864-6.6663-8.6447-11.3505-9.6817
		c-4.005-0.8871-7.7643,0.1132-10.4333,1.2673c-1.9996-4.2624-4.9444-7.1036-8.7888-8.4705
		c-7.0881-2.5191-15.0333,1.0641-18.8052,3.1798c-5.251-3.7119-10.7603-5.2036-16.4109-4.4403
		c-7.9907,1.0806-14.1307,6.4922-17.3135,9.9477c-9.6507-6.9236-21.5942-3.5446-28.8119,0.4653
		c-3.6355-4.8708-8.0971-7.6782-13.3017-8.3583c-8.6737-1.1337-16.9014,4.184-21.0128,7.4364
		c-4.0263-3.8967-8.6456-5.9959-13.7729-6.2542c-8.2316-0.4025-15.6283,4.1763-19.5898,7.2419
		c-3.384-4.0389-7.4596-6.4177-12.1563-7.0862c-7.3696-1.0468-14.3348,2.5327-18.3031,5.1639
		c-3.2069-4.9066-7.4044-8.0913-12.5181-9.4863c-9.256-2.5269-18.7781,1.7229-22.9437,3.9934
		c-4.4316-3.0347-8.8817-4.0427-13.261-3.0096c-5.6399,1.336-9.6536,5.8721-11.9677,9.3015
		c-2.8122-1.959-5.5325-2.3972-7.5786-2.3721c-8.4444,0.1722-15.0469,8.5934-15.7724,9.554
		c-1.0323,1.366-0.8893,3.2426,0.2458,4.4503c0.2366,1.6432,2.4342,18.1489-1.0313,40.0799
		c-0.0844,0.5341-0.0304,1.0542,0.1166,1.5392c-0.0285,0.2188-0.0392,0.4428-0.0247,0.6713
		c0.3366,5.2675,3.9334,10.6123,8.9513,13.2978c3.0483,1.633,6.2784,2.1486,9.4166,1.5634
		c0.6723,3.2775,2.2598,7.5109,5.9862,10.4769c4.0959,3.2611,9.6537,4.1985,16.5551,2.8026
		c4.006,5.9272,16.3596,19.9244,39.194,10.7284c6.7031,4.1705,20.0009,7.8833,33.2978-1.3872
		c3.6045,2.7861,11.0651,7.5263,19.6158,7.1326c5.3111-0.2476,10.1297-2.3914,14.3591-6.3839
		c3.9479,2.7145,11.8158,7.1027,20.5117,6.2881c5.3497-0.504,10.1161-2.8577,14.2082-7.0078
		c3.8986,2.9738,11.4191,7.7837,19.2744,7.7837c0.9181,0,1.84-0.0658,2.761-0.207c4.7161-0.7265,8.6853-3.2553,11.8341-7.5302
		C505.0687,696.5928,517.6158,701.4703,527.2452,697.2032z M574.6408,658.6094c-1.8869,3.0624-4.1039,4.9642-6.6073,5.655
		c-3.9982,1.1019-7.743-1.1541-7.7585-1.1638l-0.0905-0.0574c0.0029-0.2598-0.0157-0.5225-0.074-0.7871
		c-1.2264-5.5695-1.935-12.482-2.3287-19.4509c4.6913-1.1343,8.9791-2.3464,12.7343-3.6401
		c0.3988,5.5863,1.2404,11.6199,2.8293,17.5517C573.5573,657.5083,574.0284,658.1592,574.6408,658.6094z M557.6732,609.9435
		c1.5118-0.8761,4.6166-2.3244,7.7348-1.6334c2.3464,0.5203,4.4113,2.2625,6.1533,5.1622
		c-0.1446,0.3015-0.2621,0.6202-0.3151,0.9682c-0.0779,0.512-1.1343,7.6788-1.0266,17.4686
		c-3.6379,1.364-7.9433,2.6397-12.738,3.8328C557.1223,623.4775,557.5617,612.4322,557.6732,609.9435z M553.3388,663.7477
		c0.1981,0.9008,0.7369,1.6323,1.4445,2.1127c-3.8166,9.8547-12.8777,11.8453-17.3127,12.2122
		c-0.0073-0.1922-0.0206-0.3854-0.0609-0.5801c-1.8557-8.9036-3.0495-19.5566-3.8154-29.9606
		c6.0532-0.9741,11.8847-2.031,17.3229-3.1772C551.3469,651.2475,552.0916,658.0839,553.3388,663.7477z M532.2697,603.5739
		c2.7841-1.5667,8.61-4.2993,13.093-2.7029c2.5392,0.9028,4.4389,3.2906,5.6721,7.0668c-0.1412,0.3503-0.2408,0.723-0.2614,1.1213
		c-0.045,0.8719-0.6905,13.8471-0.1923,28.2748c-5.4283,1.1635-11.3024,2.2393-17.4421,3.2298
		c-1.1222-19.5563-0.8593-36.5372-0.8545-36.8146C532.2853,603.6891,532.2718,603.6331,532.2697,603.5739z M301.9696,663.9812
		c-2.5519,1.0118-4.78,0.3585-6.2734-0.4415c-2.8896-1.5468-5.1204-4.7537-5.3033-7.626c-0.0174-0.2726-0.0734-0.5323-0.1492-0.783
		c0.985-6.2587,1.5318-12.0636,1.802-17.249c2.4855,0.8151,6.4887,2.0767,11.7765,3.5787
		c-0.3911,6.7473-1.008,13.9755-1.9686,21.0771C301.786,663.0383,301.8349,663.5261,301.9696,663.9812z M304.1639,634.349
		c-6.143-1.7761-10.2629-3.1448-11.9016-3.7057c0.0773-10.6529-0.9519-17.3616-1.0228-17.8095
		c-0.0346-0.2177-0.0935-0.425-0.1652-0.6251c2.0823-2.1899,5.6417-5.154,9.0188-5.215c0.0329-0.001,0.0667-0.001,0.1006-0.001
		c1.4604,0,2.8333,0.5775,4.1599,1.7549c-0.0289,0.2034-0.0469,0.4104-0.0388,0.6229
		C304.3208,609.5402,304.7073,620.1717,304.1639,634.349z M323.446,677.5621c-0.002,0.0111-0.0009,0.0219-0.0028,0.0329
		c-4.9821,1.089-8.7769,0.6619-11.2703-1.306c-4.0331-3.1808-3.8841-9.6643-3.8831-9.7146l0.0785-1.9915
		c0.1756-0.3415,0.3033-0.7145,0.3578-1.1167c0.9154-6.768,1.5248-13.645,1.9276-20.1328
		c5.1054,1.3522,11.0014,2.8084,17.5629,4.2581C327.1395,656.0778,325.6089,666.0007,323.446,677.5621z M311.0227,636.2618
		c0.5563-13.0699,0.3281-23.4914,0.2456-26.3637l0.2478-0.5499c1.0119-2.2482,4.7083-8.3322,9.5859-9.4747
		c2.698-0.6321,5.6696,0.3282,8.8408,2.8239c-0.1643,0.5448-0.2119,1.1323-0.083,1.7277c0.0288,0.1309,2.0132,9.9411-0.8296,36.2531
		C322.2334,639.1649,316.1792,637.6483,311.0227,636.2618z M329.7484,680.0939c0.244-0.3722,0.427-0.792,0.5138-1.2567
		c2.1366-11.4203,3.6655-21.2851,4.7567-29.798c7.5216,1.5405,15.7582,3.0286,24.5601,4.3242
		c-0.1789,10.2856,0.0276,21.978,0.9365,34.7067c0.0208,0.2906,0.0879,0.5646,0.1747,0.8295
		C341.4987,696.4284,332.1122,683.9662,329.7484,680.0939z M363.3007,608.4514c-0.164,0.8927-2.7278,15.2176-3.5379,37.9359
		c-8.5773-1.279-16.6016-2.7401-23.9197-4.2491c3.0747-27.9681,0.9207-38.6003,0.7943-39.1834
		c-0.0667-0.3073-0.1842-0.5875-0.3222-0.8538c3.4087-1.8176,10.8699-5.0977,17.5747-3.2567
		c4.0941,1.1253,7.2762,3.9917,9.7254,8.7031C363.4761,607.8295,363.36,608.1265,363.3007,608.4514z M367.1238,689.2351
		c0.2275-0.506,0.3509-1.0664,0.3086-1.6584c-0.8645-12.1067-1.0676-23.3141-0.9072-33.2499
		c8.039,1.0504,16.4822,1.9222,25.2257,2.5169c0.0379,9.4434,0.4321,19.5291,1.4403,29.4628
		c0.0492,0.4828,0.2016,0.9279,0.4232,1.327C381.4593,696.6439,370.4867,691.3013,367.1238,689.2351z M394.2003,610.1096
		c-0.0321,0.2579-2.1088,17.475-2.4148,39.7884c-8.7015-0.6004-17.1009-1.4775-25.085-2.5339
		c0.7902-22.9087,3.3815-37.4492,3.4214-37.6647c0.057-0.3126,0.0555-0.6196,0.0292-0.9216
		c2.1624-1.6723,8.9077-6.3675,15.3824-5.4429c3.4302,0.4876,6.3318,2.4772,8.8475,6.0336
		C394.2967,609.6043,394.232,609.8503,394.2003,610.1096z M426.8847,688.4135c0.0036,0.0955,0.0271,0.1847,0.0382,0.278
		c-3.2384,3.3895-6.7551,5.1559-10.7222,5.3494c-7.6425,0.3614-14.6257-5.2288-16.3766-6.7496
		c0.2177-0.5173,0.3273-1.0876,0.2666-1.6851c-0.9693-9.5501-1.3553-19.2455-1.4033-28.3552
		c5.8945,0.2937,11.9045,0.4575,18.0029,0.4575c3.3889,0,6.8125-0.0703,10.2494-0.1747
		C426.7355,670.4246,426.6508,682.4185,426.8847,688.4135z M428.0379,609.0009c-0.0411,1.4557-0.6097,21.5233-0.9795,41.6084
		c-9.6582,0.3033-19.1478,0.1669-28.3447-0.2979c0.2839-22.0293,2.3376-39.1003,2.3686-39.3544
		c0.0165-0.1342,0.0077-0.2646,0.0088-0.3967c2.0205-1.8026,9.2605-7.7188,16.8442-7.3201
		c3.7859,0.1986,7.1224,1.9299,10.1687,5.2502C428.0742,608.6579,428.043,608.8253,428.0379,609.0009z M434.9654,609.1326
		c3.1525-2.8094,10.5398-8.0021,17.178-7.125c3.693,0.4828,6.8059,2.7549,9.4986,6.8865c-0.7964,0.7463-1.2327,1.8524-1.0678,3.0148
		c0.0327,0.235,2.1217,15.3282,2.562,36.4686c-13.6663,1.0577-24.4032,1.6794-29.1323,1.9341
		c0.3792-20.4151,0.9557-40.7565,0.9662-41.1135C434.9707,609.1758,434.9653,609.1549,434.9654,609.1326z M461.6899,687.8193
		c-3.2033,3.7175-6.7915,5.7468-10.9473,6.1469c-7.3242,0.7003-14.3394-3.8707-16.9313-5.7923
		c-0.0004-0.0107,0.0023-0.0207,0.0019-0.0314c-0.229-5.8704-0.1381-17.9216,0.0701-30.8773
		c4.5429-0.2348,15.3893-0.8391,29.3324-1.9039C463.2356,665.4137,462.8382,676.4958,461.6899,687.8193z M491.8734,609.2575
		c-0.0364,0.3272-0.0428,0.6614,0.0193,1.002c0.0464,0.2567,2.8304,15.792,4.0935,35.1343
		c-9.0352,0.9558-17.8547,1.7624-25.9291,2.4301c-0.4619-21.0726-2.5167-36.1606-2.6137-36.8561
		C468.712,610.1029,482.117,601.336,491.8734,609.2575z M495.4801,687.212l-0.2682,0.4749
		c-2.314,4.0979-5.1436,6.3549-8.6485,6.8995c-6.4721,1.0077-14.2592-4.1047-17.876-7.085
		c1.1144-11.4194,1.4934-22.5752,1.4579-32.6879c8.1433-0.6662,17.0576-1.4758,26.218-2.4431
		c0.4601,10.9289,0.3212,22.5855-1.1039,33.1216C495.1774,686.0974,495.2719,686.6808,495.4801,687.212z M498.7907,609.4434
		c1.4601-1.8542,7.1679-8.5067,14.643-9.5002c3.9881-0.5239,7.997,0.6984,11.9272,3.6093c-0.001,0.0264-0.0084,0.0509-0.0089,0.0775
		c-0.0201,1.1533-0.2861,18.2842,0.8793,37.9968c-7.6074,1.1204-15.487,2.1205-23.3108,3.0076
		C501.7413,626.7283,499.2805,612.2162,498.7907,609.4434z M502.1317,686.4206c1.5149-11.2029,1.6574-23.4379,1.1691-34.8083
		c7.8282-0.8868,15.7349-1.8895,23.3989-3.0175c0.7901,10.4535,2.0182,21.1823,3.9208,30.3121
		c0.1272,0.6099,0.4082,1.1482,0.793,1.5843l-0.0801,0.3688c-1.1193,5.1669-3.3723,8.4366-6.8869,9.999
		c-6.7807,3.013-17.3062-0.8599-22.6049-3.4774C501.9776,687.0815,502.085,686.764,502.1317,686.4206z"/>
	<path d="M261.6591,541.3395c-3.1934-3.5684-7.3079-6.2214-11.6534-8.0525c-4.3571-1.8484-8.9493-2.976-13.554-3.6562
		c-2.3587-0.324-4.4894-0.5622-6.6759-0.8936c-2.1748-0.3311-4.3313-0.7288-6.4678-1.1846
		c-4.2679-0.9261-8.4375-2.1586-12.4007-3.7506c-7.9099-3.1218-15.0588-8.0261-19.1695-14.8076
		c-2.0729-3.3535-3.3368-7.1399-3.7565-10.9992c-0.0608-0.4791-0.0876-0.9687-0.1215-1.4422
		c-0.0162-0.4564-0.0328-0.911-0.0184-1.3643c0.0225-0.9057,0.0966-1.8043,0.2477-2.6835c0.2986-1.7595,0.8674-3.4353,1.639-4.9733
		c0.7619-1.5483,1.8001-2.9131,2.9613-4.1442c1.1904-1.2112,2.5712-2.2291,4.0824-3.0956c1.5291-0.8413,3.2046-1.4868,4.9837-1.9761
		c0.8701-0.2413,1.8492-0.4384,2.7057-0.5622c0.7739-0.1051,1.5305-0.159,2.2699-0.1232c1.474,0.0836,2.8906,0.496,4.2298,1.2713
		c0.6669,0.387,1.3187,0.8524,1.9131,1.4195c0.605,0.5521,1.187,1.1703,1.6858,1.871c2.0389,2.7283,3.2146,6.5745,2.5833,9.6026
		c-0.1553,0.7474-0.4317,1.4107-0.8016,2.0056l-0.1403,0.2287l-0.2168,0.2492c-0.1443,0.1675-0.2859,0.3423-0.4441,0.4882
		c-0.303,0.3176-0.6279,0.6016-0.9662,0.8644c-1.353,1.0441-3.0029,1.6151-4.7523,1.5643c-1.7424-0.067-3.5258-0.8489-4.7836-2.234
		c-1.2562-1.3815-1.8408-3.4269-1.4521-5.5513c0.0516-0.2713-0.1265-0.5331-0.3978-0.5847
		c-0.2235-0.0425-0.4422,0.0746-0.5406,0.2675c-0.5373,1.074-0.8346,2.3131-0.8329,3.5985
		c-0.0135,1.291,0.3759,2.5893,0.9925,3.7671c1.2592,2.3711,3.6329,4.0955,6.3229,4.781c2.7004,0.7186,5.7174,0.2475,8.1946-1.0571
		c0.6211-0.3228,1.2198-0.6868,1.7785-1.0923c0.2911-0.1941,0.5529-0.4121,0.8191-0.6292l0.3992-0.3273l0.4203-0.4019
		c1.1317-1.0812,1.9686-2.4209,2.5539-3.795c1.1848-2.7787,1.3174-5.674,1.0265-8.4147c-0.3624-2.737-1.2021-5.391-2.5805-7.8183
		c-1.3573-2.4301-3.2315-4.6765-5.6368-6.4153c-2.371-1.7722-5.3114-2.944-8.3056-3.3542c-1.4982-0.2099-3.0033-0.2314-4.465-0.0897
		c-1.3778,0.1331-2.619,0.3287-3.9352,0.6177c-1.2978,0.2711-2.5948,0.6499-3.8664,1.1095
		c-1.2676,0.4837-2.5163,1.0456-3.7282,1.7022c-4.8701,2.5974-8.9265,7.014-11.0787,12.1428
		c-2.2146,5.095-2.5456,10.872-1.5222,15.9372c0.9534,5.0331,2.9607,9.8521,5.8399,14.0163
		c2.8775,4.1663,6.5617,7.674,10.6328,10.3749c4.0645,2.7245,8.4544,4.768,12.9327,6.2822
		c4.4859,1.5131,9.0617,2.5389,13.6417,3.2482c2.2919,0.3443,4.5852,0.6227,6.8788,0.8291c2.2812,0.2042,4.6382,0.3254,6.753,0.4863
		c4.3294,0.3382,8.6198,1.0726,12.6688,2.4625c4.0445,1.375,7.8382,3.4654,10.8855,6.4125
		c6.1891,5.8602,8.5081,15.2951,7.1451,23.9592l-0.0067,0.043c-0.0424,0.2698,0.1418,0.5228,0.4115,0.5652
		c0.2547,0.04,0.4949-0.124,0.5566-0.3693c1.1144-4.4898,1.2258-9.1612,0.3542-13.7586
		C266.994,549.3262,264.8595,544.8974,261.6591,541.3395z"/>
	<path d="M734.6489,258.8295c-7.9018-8.8696-5.4452-21.4503-9.4619-31.8187c-0.1368-0.3346-0.2862-0.6605-0.447-0.9777h0.004
		c-2.4124-4.7583-7.4047-7.6039-11.9396-10.1839c-1.8794-0.6868-4.4814-2.2188-6.2685-0.5697
		c-0.3784,0.4419-0.7549,0.8869-1.1316,1.3326c-2.0509-6.0022-4.2706-11.9126-6.6646-17.7249
		c-0.7727-2.967-1.6075-5.6961-2.0986-7.9048c-0.4122-1.853-1.1831-2.4456-2.2214-2.1026c-0.9942-2.1868-2.0076-4.3624-3.0516-6.52
		c12.1851-8.4263,23.1974-18.2741,15.2948-28.525c-11.8884-15.4183-19.6517-14.483-45.7491-44.6785
		c-14.1189-16.335-22.3141-14.8273-28.6158-9.2321c-50.4192-50.1921-112.6525-78.3053-181.2212-81.6073
		c-76.5781-3.6858-155.1223,24.9564-210.0743,76.6259c-4.6345,4.3576-9.0143,8.8621-13.1869,13.4707
		c-5.2914,0.3452-10.3172,0.9671-16.871,2.8169c-11.5994,3.2747-10.6577,15.3558-6.9712,28.1271
		c-1.8191,2.7764-3.5875,5.5675-5.2851,8.3777c-0.6508-0.7236-1.6304-0.6153-3.0417,0.5814
		c-5.9072,5.0101-18.3506,12.3718-19.5113,22.609c-0.6348,5.5978,2.2696,7.9058,4.9542,10.8768
		c-3.4767,7.9265-6.5554,15.8331-9.2885,23.6375c-5.6787,0.6784-11.7038,1.6401-16.1577,5.3267l0.0043,0.0018
		c-0.3236,0.2678-0.6389,0.5503-0.9452,0.8478c-9.2444,9.3227-12.5733,23.9821-25.2868,29.9177
		c-1.2689,0.6923-4.6889,0.4731-3.6883,2.5724l0.5711,0.6836c9.8794,5.2103,20.4792,10.3253,31.8016,10.9083
		c-0.6655,3.31-1.2745,6.5501-1.8293,9.7065c-10.6791,60.7602-7.3309,126.0729,8.9571,174.7116
		c0.1575,0.47,0.3964,0.8846,0.6682,1.2698c-2.5721,2.1365-4.923,3.9956-7.0617,5.6853
		c-17.8683,14.1167-19.523,18.2359-5.6636,49.979c8.9269,20.4449,17.2899,32.3623,25.4319,39.5925
		c-1.4466,2.8965-2.2471,8.4133-1.2224,20.4866c0.8885,10.473,7.2323,23.7989,13.367,36.6855
		c6.1057,12.8267,12.4194,26.0897,12.2603,34.328c-0.0392,2.0161-0.2675,4.8892-0.5321,8.2151
		c-2.0301,25.5218-6.7843,85.2894,47.4188,107.0887c0.6061,0.2438,1.2315,0.3589,1.8468,0.3589
		c0.3221,0,0.6385-0.0427,0.9507-0.1041c1.7503,4.6243,3.7405,9.1328,5.8503,13.4547
		c13.8986,28.4712,37.6002,51.1495,65.7144,65.4683c20.6986,10.5419,43.3167,16.8665,66.255,20.1419
		c29.3378,4.1891,59.4771,4.4542,88.7906-0.0658c42.2041-6.5076,83.2852-25.1443,111.42-57.9999
		c8.9521-10.4544,16.5092-22.0486,22.0886-34.63c0.3004,0.0566,0.6049,0.0958,0.9144,0.0956c0.6152,0,1.2402-0.1151,1.8467-0.3589
		c54.2022-21.8003,49.4484-81.5669,47.4188-107.0878c-0.2641-3.3269-0.4933-6.2-0.532-8.217
		c-0.1597-8.2383,6.1545-21.5013,12.2607-34.3281c6.1343-12.8867,12.4785-26.2125,13.3675-36.6855
		c0.9343-11.0172,0.3492-16.5742-0.8593-19.6636c10.4638-6.1819,21.127-18.3501,32.7446-44.9594
		c13.8599-31.7431,12.2056-35.8623-5.6631-49.979c-1.8767-1.4825-3.9177-3.0966-6.1262-4.912
		c3.5489-11.7839,14.9935-53.9949,15.421-109.4922c0.1904-24.7966-1.8904-48.8305-6.1729-71.8336
		c6.1287,0.6524,12.4397,0.2735,18.5337-0.2356l0.6831-0.3454C738.1558,260.7574,735.403,259.793,734.6489,258.8295z
		 M668.9557,134.6035c9.5667,12.9274,10.7458,18.7678,8.5416,22.3732c-8.8254-14.4545-18.8622-28.145-30.1166-40.9785
		c-0.4435-0.5057-0.8968-0.9942-1.3423-1.4963C652.689,117.1698,660.3848,123.021,668.9557,134.6035z M413.6567,822.9341
		c-0.5664-0.3744-1.2407-0.5785-1.913-0.5456c-2.3962,0.0687-3.5919,1.1909-4.1724,2.1205
		c-0.5872,0.9394-1.0728,2.5308-0.0532,4.7838c0.2772,0.6124,0.7347,1.1251,1.3118,1.4704l1.2484,0.7469
		c-27.5519-0.476-35.5121-3.8445-37.785-5.9263c-0.1703-0.1558-0.357-0.2941-0.5558-0.4112
		c-6.1347-3.6064-8.0753-9.226-6.8221-12.9128c1.039-3.056,4.1777-4.7576,8.5905-4.7576c0.7657,0,1.5706,0.0513,2.4088,0.1558
		c1.1928,0.1432,2.3764-0.3666,3.0821-1.3428c0.7048-0.9771,0.8218-2.2598,0.3043-3.3481
		c-2.5414-5.342-2.7585-9.8094-0.5949-12.2569c2.1046-2.3807,6.5459-2.8345,11.6276-1.1967
		c7.4775,3.7932,15.6883,15.2713,24.4519,34.1664L413.6567,822.9341z M418.0163,772.7833c0.4861-0.118,0.9708-0.176,1.453-0.176
		c3.1726,0,6.2083,2.5123,8.3288,6.9943c0.5156,1.0883,1.5836,1.81,2.7861,1.8816c1.2034,0.0725,2.3483-0.5176,2.9892-1.5382
		c3.1465-5.0101,6.8022-7.595,10.0271-7.0726c3.1397,0.5001,5.903,4.0069,7.2443,9.1728c0.8063,8.3477-4.48,21.4327-15.7323,38.96
		l0.0247-1.3525c0.0121-0.6791-0.1853-1.3456-0.5659-1.9077c-1.3423-1.9851-2.895-2.3624-4.0263-2.3846
		c-1.1077,0.0078-2.7121,0.4518-4.0669,2.521c-0.3681,0.5621-0.5563,1.2228-0.5384,1.8951l0.0387,1.4501
		c-14.3687-23.5125-15.7922-32.0372-15.2539-35.071c0.0406-0.2283,0.0566-0.4586,0.0489-0.6898
		C410.5291,778.3536,414.2318,773.7024,418.0163,772.7833z M441.8085,836.0284c-6.9851,0.1315-13.9745,0.0139-20.9429-0.3174
		c-0.4648-0.8885-0.7333-1.8464-0.7333-2.8519c0-4.4863,5.054-8.1233,11.2887-8.1233c6.2345,0,11.2886,3.637,11.2886,8.1233
		C442.7096,833.9847,442.3846,835.0541,441.8085,836.0284z M451.3808,832.4039l1.1352-0.7372
		c0.5693-0.3695,1.0114-0.9055,1.2649-1.5362c0.8943-2.2241,0.3434-3.768-0.2762-4.6716c-0.6167-0.8987-1.853-1.9609-4.2512-1.9609
		c-0.0372,0-0.075,0-0.1132,0c-0.6719,0.0097-1.3253,0.2235-1.8724,0.6143l-1.1812,0.8445
		c11.451-25.0633,17.7212-31.0128,20.5378-32.2646c0.2109-0.0938,0.4117-0.2089,0.5984-0.3453
		c5.7584-4.1821,11.6852-3.7129,14.5641-1.0903c2.8006,2.551,2.7339,7.0078-0.179,11.9212
		c-0.6143,1.0361-0.6148,2.3256-0.0015,3.3617c0.6133,1.037,1.7408,1.6426,2.9477,1.6175
		c5.9171-0.1906,10.0938,1.394,11.4719,4.3542c1.3413,2.8829-0.0189,7.1355-3.5504,11.1367
		C486.0053,828.9871,472.2025,831.925,451.3808,832.4039z M713.6995,334.0859c-0.3333,48.3999-9.5184,87.2392-13.7875,102.7307
		c-1.8799-1.7185-3.855-3.59-5.9299-5.6449c-25.0139-24.7716-18.6078-58.9743-14.3687-81.607
		c0.978-5.2201,1.9278-9.7215,2.1244-13.397c2.2327-41.7654-42.8911-35.5273-33.1586-77.5726
		c0.6167-2.665-1.128-5.308-3.8019-5.8827c-2.6797-0.5746-5.5171,1.0911-5.8837,3.8018
		c-6.5488,48.408,35.1958,50.7136,32.971,78.8419c-0.2501,3.1598-1.0602,7.4344-1.988,12.3851
		c-4.3427,23.189-11.6116,61.9999,17.1345,90.4694c4.4672,4.4239,8.5472,8.0787,12.1782,11.1573
		c0.0031,0.0028,0.0064,0.0053,0.0095,0.008c3.4063,2.8877,6.4176,5.2688,8.9692,7.2849
		c7.4654,5.8972,10.5146,8.4337,11.0041,12.0257c0.6327,4.6503-2.4214,12.8015-8.278,26.2154
		c-17.8311,40.8395-31.1037,43.2726-47.9083,46.3537c-6.7089,1.2296-14.3126,2.6236-22.4706,6.618
		c-29.7068,14.5457-27.891,42.1223-27.7991,43.289c0.2041,2.5926,2.3691,4.5516,4.9288,4.5516c0.1229,0,0.2467-0.0048,0.3705-0.0145
		c2.7174-0.1993,4.7634-2.5704,4.5777-5.2888c-0.0609-0.8987-1.2266-22.1311,22.2781-33.6411
		c6.9314-3.3927,13.5242-4.6019,19.9003-5.7706c4.4461-0.8152,8.832-1.621,13.2136-3.0435
		c0.0748,0.0636,0.1422,0.1366,0.2206,0.1956c0.3115,1.3998,0.7933,5.2626,0.0096,14.5002
		c-0.7361,8.6785-6.6866,21.1772-12.4407,33.2649c-6.9043,14.5032-13.4255,28.2015-13.2205,38.778
		c0.0445,2.314,0.2844,5.3245,0.5611,8.8101c0.0385,0.4844,0.078,0.9824,0.1178,1.4864
		c-4.1293-5.6789-9.5743-10.4608-15.9971-13.7121c-4.2225-2.0359-8.8572-3.4827-13.6974-3.7571
		c-2.4109-0.2171-4.8459-0.0137-7.2987,0.3195c-2.4105,0.4633-4.8058,1.0878-7.0456,2.0751
		c-4.5201,1.8751-8.6398,4.6843-11.9933,8.2746c-3.3542,3.568-6.1712,7.8047-7.7459,12.6559
		c-0.3705,1.2175-0.7567,2.4335-0.9572,3.7072c-0.1116,0.6323-0.2634,1.2585-0.3334,1.8994l-0.1619,1.9328l-0.0651,0.9686
		l0.0274,0.9736l0.0709,1.9493c0.1339,1.2772,0.293,2.5565,0.5557,3.8031c1.0906,4.9767,3.3061,9.5388,6.3033,13.5151
		c3.0098,3.9533,6.964,7.3134,11.718,9.4042c1.1508,0.5743,2.4523,0.8884,3.6929,1.2695c0.6149,0.2064,1.2967,0.2484,1.9396,0.3716
		c0.6565,0.0816,1.2913,0.2467,1.9589,0.2435c1.3289-0.004,2.6479,0.124,3.9515-0.1501l1.9404-0.324
		c0.6553-0.1887,1.3082-0.341,1.9447-0.6012c2.5583-0.9259,4.8989-2.5688,6.5459-4.6216c1.6564-2.054,2.7382-4.3851,3.3304-6.7457
		c0.5655-2.3716,0.7401-4.7728,0.4146-7.126c-0.1705-1.1738-0.4368-2.3372-0.91-3.4513c-0.498-1.0799-1.1589-2.2329-2.3572-2.8365
		c-0.1741-0.0872-0.3923-0.0626-0.5424,0.0782c-0.1927,0.1808-0.2027,0.4835-0.0218,0.6763l0.0455,0.0485
		c0.6114,0.6522,0.8793,1.6093,0.994,2.5733c0.124,0.9684,0.089,1.9764-0.0353,2.9631c-0.2515,1.9756-0.8224,3.9091-1.7033,5.6144
		c-0.8356,1.7208-1.9697,3.2194-3.2991,4.304c-1.3331,1.0793-2.7942,1.8083-4.3958,2.0833
		c-0.3878,0.0962-0.8098,0.1063-1.2079,0.1625l-1.2911-0.0165c-0.8485,0.0806-1.6935-0.1512-2.524-0.2281
		c-0.4172-0.0338-0.823-0.228-1.2315-0.3252c-0.4041-0.1409-0.8204-0.182-1.2108-0.3885c-0.7826-0.3812-1.5869-0.637-2.3193-1.1516
		c-2.9999-1.7604-5.6896-4.3507-7.6909-7.4428c-0.4885-0.7805-1.0369-1.5182-1.4327-2.3542l-0.6505-1.2146l-0.5409-1.2634
		c-0.7575-1.6686-1.2796-3.4103-1.6843-5.1495c-0.1541-0.8722-0.3091-1.742-0.4276-2.609l-0.0774-1.2936l-0.0469-0.6478
		l0.035-0.6514c0.0255-0.4342,0.0342-0.8698,0.0419-1.307c0.0174-0.4367,0.1116-0.87,0.1589-1.3071
		c0.0711-0.8798,0.3096-1.7395,0.512-2.6091c1.7173-6.9589,7.0051-13.4075,13.7891-16.6708
		c6.7263-3.4152,14.9876-2.9993,22.2463,0.1409c7.2951,3.1412,13.673,8.7815,17.9419,15.7615
		c0.5063,0.8176,0.9796,1.656,1.4314,2.5064c1.3126,26.0297-0.8895,64.8844-36.4293,82.7624
		c1.8275-5.6339,3.1006-11.5013,3.006-17.2707c-0.0256-1.5627-0.1772-3.154-0.5389-4.6754
		c-1.4737-6.1996-11.028-3.5749-9.5522,2.6334c0.0455,0.1915,0.0803,0.3267,0.1071,0.4216c0.0006,0.0093,0.0006,0.0143,0.001,0.0243
		c0.0419,0.6785,0.0786,1.3505,0.0767,2.0309c-0.002,0.6794-0.0393,1.3586-0.0886,2.0361
		c-0.0432,0.5925-0.1843,1.7057-0.2026,1.8992c-0.6699,4.351-1.8369,8.6187-3.2611,12.7794
		c-3.9436,11.5217-10.2383,22.6082-17.6115,32.5935c-22.5854,30.5875-57.0829,49.8797-93.5672,58.7996
		c0.3538-0.2666,0.718-0.5288,1.0454-0.8066c0.1132-0.0958,0.2196-0.1993,0.3188-0.3096c5.5238-6.142,7.3096-13.0579,4.7765-18.5005
		c-2.0131-4.3262-6.4583-7.092-12.52-7.921c2.3271-6.9382,0.0953-12.373-3.2567-15.428c-5.681-5.1746-14.9399-4.985-22.6138,0.4353
		c-1.9182,0.9192-4.3918,2.7115-7.6784,6.9263c1.3552-4.7983,1.8427-9.0079,1.4417-12.6378
		c-0.0164-0.148-0.0426-0.2932-0.0784-0.4373c-2.0005-8.0139-6.734-13.3636-12.6617-14.3088
		c-4.7185-0.7526-9.4926,1.3853-13.5701,5.9466c-4.4491-5.8121-10.2055-7.004-14.6101-5.9311
		c-7.4702,1.8138-12.4901,9.5956-12.2893,18.9871c-0.2795,1.889-0.2302,4.5372,0.9798,8.7357
		c-4.0794-5.1207-8.1035-8.6407-12.1093-10.6037c-0.1325-0.0648-0.2699-0.1209-0.4102-0.1683
		c-7.8378-2.6061-14.8911-1.4791-18.8676,3.0173c-3.1605,3.5745-3.9189,8.7549-2.255,14.6434
		c-7.2888,0.6404-11.38,4.8593-12.8398,9.1525c-1.9522,5.7443,0.0642,12.1854,4.9451,17.0405
		c-7.9386-2.1789-15.7455-4.8121-23.3394-7.9866c-28.9267-12.0927-54.0215-32.5326-69.4867-60.0026
		c-5.0331-8.9401-8.6198-17.3975-11.4538-27.2762c-0.9052-3.1553-1.6902-6.3474-2.3149-9.5704
		c-0.2145-1.1066-0.3916-2.218-0.582-3.3286c-0.03-0.1749-0.0525-0.3027-0.0719-0.4117c-0.0068-0.082-0.0219-0.2269-0.053-0.4855
		c-0.0268-0.2234-0.0509-0.4475-0.0699-0.6719c-0.5329-6.3058-10.4438-6.3625-9.9061,0c0.418,4.9457,1.349,9.8919,2.6415,14.771
		c-32.1298-15.5259-37.7294-47.8561-37.7077-73.2983c0.894-2.1165,1.928-4.1669,3.1326-6.1121
		c4.2689-6.98,10.6467-12.6204,17.9419-15.7615c7.2588-3.1403,15.5201-3.5561,22.2464-0.1409
		c6.784,3.2633,12.0719,9.7119,13.7892,16.6708c0.2024,0.8696,0.4408,1.7292,0.5119,2.6091
		c0.0473,0.4371,0.1415,0.8704,0.159,1.3071c0.0077,0.4373,0.0163,0.8728,0.0419,1.307l0.035,0.6514l-0.0469,0.6478l-0.0774,1.2936
		c-0.1185,0.867-0.2736,1.7368-0.4276,2.609c-0.4045,1.7391-0.9268,3.4808-1.6842,5.1495l-0.541,1.2634l-0.6505,1.2146
		c-0.3958,0.836-0.9442,1.5737-1.4327,2.3542c-2.0013,3.0921-4.691,5.6824-7.6909,7.4428
		c-0.7325,0.5146-1.5367,0.7704-2.3193,1.1516c-0.3904,0.2065-0.8067,0.2476-1.2109,0.3885
		c-0.4084,0.0972-0.8143,0.2914-1.2314,0.3252c-0.8305,0.0769-1.6756,0.3087-2.5241,0.2281l-1.291,0.0165
		c-0.3981-0.0562-0.8201-0.0663-1.208-0.1625c-1.6015-0.275-3.0627-1.004-4.3957-2.0833c-1.3295-1.0846-2.4635-2.5833-3.2991-4.304
		c-0.881-1.7053-1.4519-3.6388-1.7034-5.6144c-0.1243-0.9866-0.1593-1.9946-0.0352-2.9631c0.1146-0.964,0.3825-1.9211,0.994-2.5733
		l0.0455-0.0485c0.1808-0.1928,0.171-0.4955-0.0218-0.6763c-0.1503-0.1409-0.3683-0.1654-0.5424-0.0782
		c-1.1983,0.6036-1.8592,1.7567-2.3572,2.8365c-0.4733,1.1141-0.7394,2.2775-0.91,3.4513c-0.3256,2.3533-0.1509,4.7544,0.4146,7.126
		c0.5922,2.3606,1.6739,4.6917,3.3303,6.7457c1.6471,2.0527,3.9877,3.6957,6.5459,4.6216c0.6365,0.2602,1.2894,0.4125,1.9446,0.6012
		l1.9404,0.324c1.3036,0.2742,2.6227,0.1461,3.9516,0.1501c0.6675,0.0032,1.3024-0.1619,1.9588-0.2435
		c0.643-0.1232,1.3248-0.1652,1.9396-0.3716c1.2406-0.3811,2.5423-0.6952,3.6929-1.2695c4.7541-2.0909,8.7084-5.4509,11.718-9.4042
		c2.9973-3.9763,5.2127-8.5384,6.3034-13.5151c0.2625-1.2466,0.4218-2.5259,0.5556-3.8031l0.0709-1.9493l0.0274-0.9736
		l-0.065-0.9686l-0.1619-1.9328c-0.07-0.6409-0.2218-1.2672-0.3334-1.8994c-0.2006-1.2737-0.5869-2.4897-0.9572-3.7072
		c-1.5747-4.8512-4.3917-9.088-7.7461-12.6559c-3.3534-3.5903-7.473-6.3995-11.9932-8.2746
		c-2.2398-0.9873-4.635-1.6118-7.0455-2.0751c-2.453-0.3332-4.8878-0.5366-7.2989-0.3195
		c-4.8401,0.2745-9.4749,1.7213-13.6973,3.7571c-7.5702,3.8322-13.7823,9.7901-18.0801,16.8393
		c0.2163-4.0216,0.5098-7.7249,0.7682-10.9742c0.2771-3.4855,0.5166-6.4951,0.5616-8.8091
		c0.2046-10.5765-6.3161-24.2748-13.2199-38.777c-5.7545-12.0876-11.7045-24.5873-12.4412-33.2658
		c-0.6567-7.7433-0.4244-11.7012-0.149-13.6064c7.0902,3.8956,14.1017,5.1835,21.2702,6.498
		c6.3766,1.1686,12.9699,2.3779,19.9003,5.7705c23.47,11.4927,22.343,32.6777,22.2786,33.6364
		c-0.2022,2.7184,1.8308,5.0914,4.5506,5.3052c0.1325,0.0107,0.2636,0.0155,0.3942,0.0155c2.5587,0,4.7281-1.9696,4.9323-4.5641
		c0.0919-1.1667,1.9087-28.7433-27.7995-43.289c-8.1571-3.9944-15.7613-5.3884-22.4702-6.618
		c-16.8041-3.0811-30.0773-5.5142-47.9083-46.3537c-5.8576-13.4139-8.9112-21.5652-8.2775-26.2155
		c0.489-3.5919,3.5383-6.1284,11.0032-12.0257c5.2728-4.1666,12.4944-9.8713,21.1564-18.4502
		c28.7476-28.4695,21.4786-67.2809,17.1355-90.4698c-0.9272-4.9507-1.5713-9.2429-1.9875-12.3846
		c-1.701-12.8386,34.2332-37.1862,22.3444-92.5101c-0.5741-2.6749-3.2084-4.3765-5.8827-3.8019
		c-2.6748,0.5746-4.377,3.2084-3.8018,5.8827c11.0239,51.3015-24.9283,70.821-22.5331,91.2409
		c0.4288,3.6557,1.1464,8.1764,2.1239,13.3965c4.2391,22.6327,10.6447,56.8359-14.3692,81.6075
		c-1.8642,1.8464-3.6438,3.5381-5.3504,5.1103c-16.3415-50.6487-19.0159-116.4991-5.7053-179.4611
		c10.9233-2.1694,20.7507-9.1233,26.6487-18.3648c0.5134-0.8266,1.3202-1.8915,0.2524-2.7331
		c-3.1168-4.1022-6.6005-7.9481-9.4793-12.221c-2.1506-3.883-3.3899-8.1512-4.6471-12.379
		c1.3627-3.8622,2.793-7.6939,4.2917-11.4916c0.5048,12.5681,5.0664,29.7181,24.5454,32.1186
		c22.2318,2.7391,27.0928-7.9361,16.253-8.8653c-23.4579-2.009-29.021-14.5836-29.4349-28.9866
		c-0.1691-5.8774,1.0694-15.1687,2.0664-23.7703c2.97-5.6958,6.1196-11.2692,9.446-16.7064
		c1.683,4.6897,3.3093,9.1063,4.3463,12.8052c5.9954,21.3845,3.2846,16.9097,20.7948-5.1891
		c16.1034-20.3214-21.4128-27.937,21.4133-40.9224c42.825-12.9864,47.5724,10.91,52.0739,14.6173
		c1.5479,1.2752,2.7881-0.5706,2.2948-2.2266c-3.6006-12.0944,6.9565-37.273-31.4694-28.6672
		c-16.2823,3.647-27.0112,4.9675-35.2786,5.5876c1.8271-1.8468,3.6744-3.6722,5.5658-5.4508
		c53.0331-49.8663,128.8667-77.5033,202.8111-73.9482c66.2248,3.1893,126.3618,30.4536,175.0959,79.1279
		c-1.9207,2.3691-3.797,4.5946-5.8055,6.0723c-1.3517,0.9941-1.4823,3.1134,0.4562,3.0079
		c2.0799-0.1131,5.8016-2.3184,10.9382-3.3416c2.9241,3.0756,5.8118,6.2177,8.648,9.4517c0.4714,0.5376,0.931,1.0784,1.3967,1.6175
		c-2.1652,0.1369-4.4103,0.6262-6.7154,1.5333c-17.4562,6.8686-26.7939,23.3787-21.231,37.5508
		c0.7276,1.8534,2.2879,2.1683,2.662,0.2172c2.2671-11.799,7.6793-24.3849,25.3271-23.6288
		c7.8649,0.3367,13.3102,2.9958,17.049,6.1658c2.6111,3.6978,5.1,7.4193,7.4822,11.1581c0.0991,0.3244,0.151,0.5325,0.1637,0.5899
		c0.1846,0.8339,0.4301,1.0063,0.6789,0.7435c0.9427,1.498,1.8729,2.9977,2.7803,4.5009c-4.2137,2.6848-8.3021,6.4108-8.145,15.1769
		c0.4803,26.8779-4.2311,28.7858,12.9358,15.7364c2.4207-1.84,5.4229-3.8253,8.6423-5.9338
		c1.4763,3.1024,2.8838,6.2078,4.2305,9.3129c-5.4254,8.3854-12.0413,20.8079-16.9348,26.8491
		c-8.7767,10.8365-20.4373,17.3587-39.6472,5.6503c-8.8773-5.4098-11.4105,5.5416,7.2859,15.9961
		c18.6964,10.4539,33.742-4.837,40.6664-14.6614c6.1475-8.7242,12.9512-4.4819,17.9839-9.3913
		c0.3318,0.9929,0.6565,1.9848,0.9766,2.9761c-3.7128,2.3699-7.7443,4.2168-11.5801,6.381
		c-1.1264,0.304-0.8628,1.4056-0.7463,2.2232c1.6229,10.4695,8.2576,20.3129,17.9064,25.2457
		c1.1993,0.6317,2.4239,1.1755,3.6665,1.6515C712.18,287.0904,713.8489,312.4125,713.6995,334.0859z"/>
	<path d="M434.3632,339.1978c0,0,24.3513-17.1451,16.9343-30.1353c-2.4045-4.4168-12.1714-8.0472-16.9343,0
		c-4.7625-8.0472-14.5293-4.4168-16.9339,0C410.012,322.0526,434.3632,339.1978,434.3632,339.1978z"/>
	<path d="M430.7785,718.7732c-5.6552-9.5555-17.2527-5.2447-20.108,0c-8.8076,15.4252,20.108,35.7841,20.108,35.7841
		s28.9157-20.3589,20.1085-35.7841C448.0318,713.5285,436.4341,709.2177,430.7785,718.7732z"/>
	<circle cx="217.4188" cy="577.7473" r="8.3894"/>
	<path d="M229.0383,589.2891c-2.9613,0.2989-5.1196,2.942-4.8206,5.9033c0.299,2.9614,2.942,5.1196,5.9033,4.8207
		c2.9613-0.299,5.1196-2.942,4.8206-5.9033C234.6427,591.1483,231.9997,588.9901,229.0383,589.2891z"/>
	<path d="M200.1622,558.2357c-2.9613,0.299-5.1196,2.942-4.8206,5.9033c0.299,2.9614,2.942,5.1196,5.9033,4.8207
		c2.9613-0.299,5.1196-2.942,4.8206-5.9034C205.7666,560.095,203.1235,557.9366,200.1622,558.2357z"/>
	
		<ellipse transform="matrix(0.9871 -0.1602 0.1602 0.9871 -113.1865 72.7197)" cx="394.4571" cy="738.4096" rx="11.568" ry="11.5679"/>
	<path d="M467.4435,726.8417c-6.3889,0-11.5681,5.1791-11.5681,11.5679s5.1792,11.5679,11.5681,11.5679
		c6.3887,0,11.5679-5.1791,11.5679-11.5679S473.8322,726.8417,467.4435,726.8417z"/>
	<circle cx="493.6627" cy="753.9366" r="8.4068"/>
	<circle cx="370.6973" cy="753.9366" r="8.4067"/>
	<path d="M262.5124,346.1914c7.5035-6.4995,16.6983-11.6851,27.1672-14.85c7.3329-2.2169,14.7021-3.2691,21.8401-3.2696
		c14.5299-0.001,28.1142,4.3643,38.6009,12.1276c0.0448-0.123,0.0921-0.2446,0.1338-0.3696
		c4.0818-12.233-11.8642-38.216-11.8642-38.216s-28.3536,11.2012-32.4355,23.4342c-0.3539,1.0605-0.6221,2.1286-0.8185,3.1974
		c-0.403-1.4989-0.9623-2.9795-1.6848-4.4212c-5.7781-11.5292-35.4353-18.5895-35.4353-18.5895s-12.0936,27.9846-6.3156,39.5138
		C261.9505,345.2472,262.2315,345.7194,262.5124,346.1914z"/>
	<path d="M275.8008,473.8416c0,0,28.3536-11.2013,32.4355-23.4343c0.9406-2.8186,1.3069-5.6889,1.1744-8.489
		c8.3059,10.0822,33.8134,16.1605,33.8134,16.1605s9.8789-22.8802,7.4928-35.7836c-7.7605,7.1208-17.4815,12.7962-28.6515,16.1731
		c-7.3329,2.2168-14.7021,3.2696-21.8401,3.2696c-26.5651,0-49.9948-14.5637-57.0439-37.8807
		c-0.9312-3.0802-1.5215-6.1919-1.8253-9.3065c-0.6817,0.2642-1.3582,0.5572-2.0251,0.8914
		c-11.5292,5.7781-18.5894,35.4353-18.5894,35.4353s27.9845,12.0937,39.5137,6.3156c1.462-0.7327,2.8123-1.5992,4.0462-2.5753
		c-0.1278,0.3321-0.2512,0.667-0.3648,1.0079C259.8548,447.8586,275.8008,473.8416,275.8008,473.8416z"/>
	<path d="M376.1245,381.7752c-1.3611-0.4886-2.7377-0.8359-4.1153-1.0632c1.4024-0.3961,2.7886-0.9243,4.1397-1.6015
		c11.5292-5.7781,18.5894-35.4353,18.5894-35.4353s-27.9846-12.0937-39.5138-6.3156c-1.7311,0.8676-3.2966,1.9309-4.7055,3.1346
		c8.489,6.4023,14.8998,15.056,18.0445,25.4582c5.8601,19.3841-1.06,40.0054-16.2676,54.8654
		c2.2537,2.1072,4.9609,3.8029,8.0491,4.9116c12.1377,4.3574,38.4746-10.9973,38.4746-10.9973S388.2621,386.1325,376.1245,381.7752z
		"/>
	<path d="M241.2324,393.1408c-1.173-17.2069,6.8657-34.3736,21.0826-46.7811c-2.3225-1.5429-4.9232-2.7498-7.7704-3.4984
		c-13.8918-3.653-41.6192,15.9482-41.6192,15.9482S227.3661,389.3873,241.2324,393.1408z"/>
	<path d="M413.6934,396.0179c-1.4703,6.0343-2.932,12.0562-4.8083,18.0032l-0.6426,2.2501
		c-0.2016,0.7549-0.4341,1.5001-0.7014,2.2344c-0.5011,1.4802-1.0303,2.9512-1.5091,4.4452
		c-0.2456,0.7447-0.4639,1.5009-0.7325,2.2383l-0.8326,2.2039c-0.5663,1.4659-1.0977,2.9506-1.6209,4.4437
		c-0.5074,1.5009-1.1938,2.9223-1.7471,4.4114l-1.7278,4.451c-1.2193,2.9437-2.4937,5.8752-3.5991,8.9357l-0.0067,0.0183
		c-0.0523,0.1458-0.0119,0.315,0.1135,0.4206c0.1611,0.1355,0.4016,0.1147,0.5371-0.0464c2.0852-2.4793,4.0418-5.0655,5.98-7.6797
		c1.7676-2.7098,3.6092-5.4039,5.235-8.2229c0.8004-1.4164,1.5928-2.8413,2.3503-4.2851l1.153-2.1605
		c0.3759-0.7248,0.7032-1.4727,1.0575-2.2092c1.3618-2.9702,2.7172-5.9523,3.8384-9.038
		c2.3942-6.1121,3.9367-12.5543,5.0016-19.0422c0.4048-3.2727,0.8617-6.5268,1.0259-9.8171
		c0.3195-3.2703,0.3023-6.5672,0.3633-9.8432c-0.0187-6.5657-0.5987-13.1177-1.7151-19.5625
		c-1.1588-6.439-2.8875-12.7599-5.1674-18.856c-2.3097-6.0865-5.1649-11.9406-8.4874-17.49
		c-3.3782-5.5172-7.1461-10.7862-11.713-15.3823c-0.134-0.134-0.3517-0.1496-0.5028-0.0282
		c-0.1621,0.1302-0.188,0.3672-0.0577,0.5293l0.0188,0.0235c7.9529,9.8997,13.5807,21.5359,17.17,33.5542
		c1.815,6.016,3.0743,12.1793,3.7794,18.3871c0.7372,6.2031,0.9563,12.4534,0.6445,18.6732
		C415.9699,383.7948,415.0915,389.9643,413.6934,396.0179z"/>
	
		<ellipse transform="matrix(0.4253 -0.9051 0.9051 0.4253 -65.5441 430.0881)" cx="305.8726" cy="266.6524" rx="11.0515" ry="11.0515"/>
	
		<ellipse transform="matrix(0.9151 -0.4031 0.4031 0.9151 -81.198 157.3268)" cx="333.1117" cy="271.5395" rx="10.0337" ry="10.0337"/>
	<path d="M273.4634,279.9029c4.9525,1.9236,10.5266-0.5319,12.4502-5.4843c1.9236-4.9525-0.5318-10.5266-5.4843-12.4502
		c-4.9525-1.9236-10.5267,0.5318-12.4502,5.4843C266.0555,272.4052,268.5109,277.9793,273.4634,279.9029z"/>
	
		<ellipse transform="matrix(0.0192 -0.9998 0.9998 0.0192 68.2972 635.2518)" cx="357.9466" cy="282.8137" rx="8.5224" ry="8.5224"/>
	<path d="M254.3319,273.5812c-4.8354-1.878-10.2776,0.5193-12.1556,5.3546c-1.878,4.8353,0.5192,10.2775,5.3545,12.1556
		c4.8353,1.878,10.2776-0.5193,12.1556-5.3546C261.5644,280.9015,259.1671,275.4593,254.3319,273.5812z"/>
	<path d="M373.4865,293.758c-1.4457,3.7222,0.3997,7.9116,4.1219,9.3573c3.7222,1.4457,7.9116-0.3997,9.3574-4.1219
		c1.4457-3.7222-0.3998-7.9117-4.1219-9.3574S374.9323,290.0357,373.4865,293.758z"/>
	<circle cx="232.443" cy="295.4944" r="6.6341"/>
	<path d="M248.8709,402.1372c6.0859,20.1313,26.7238,33.657,51.3545,33.657c6.7325,0,13.5019-1.0145,20.1201-3.0153
		c31.4308-9.502,50.509-38.7087,42.5286-65.1065c-6.0859-20.1313-26.7218-33.657-51.3495-33.657h-0.002
		c-6.7368,0.0004-13.5063,1.0149-20.1231,3.0153C259.9688,346.5327,240.8905,375.7394,248.8709,402.1372z"/>
	<path d="M513.1723,427.7378c3.0883-1.1087,5.7955-2.8044,8.0492-4.9116c-15.2077-14.86-22.1277-35.4813-16.2676-54.8654
		c3.1448-10.4023,9.5558-19.0558,18.045-25.4579c-1.409-1.2039-2.9747-2.2672-4.7059-3.1349
		c-11.5292-5.7781-39.5139,6.3156-39.5139,6.3156s7.0603,29.6572,18.5895,35.4353c1.3511,0.6771,2.7371,1.2054,4.1396,1.6015
		c-1.3776,0.2273-2.7542,0.5746-4.1153,1.0631c-12.1377,4.3574-22.6951,32.957-22.6951,32.957S501.0346,432.0951,513.1723,427.7378z
		"/>
	<path d="M605.5015,307.243c0,0-29.6572,7.0603-35.4355,18.5894c-0.7224,1.4417-1.2818,2.9224-1.6847,4.4212
		c-0.1964-1.0688-0.4647-2.1368-0.8187-3.1974c-4.0819-12.233-32.4353-23.4343-32.4353-23.4343s-15.946,25.9831-11.8643,38.2161
		c0.0417,0.1252,0.0891,0.2469,0.134,0.3701c10.4867-7.7628,24.0709-12.1281,38.6006-12.1281
		c7.1382,0,14.5072,1.0528,21.8401,3.2696c10.4689,3.1649,19.6638,8.3504,27.1671,14.85c0.2811-0.472,0.5621-0.9442,0.812-1.443
		C617.5951,335.2276,605.5015,307.243,605.5015,307.243z"/>
	<path d="M634.1863,397.4505c-0.6669-0.3343-1.3433-0.6272-2.0251-0.8914c-0.3038,3.1147-0.8942,6.2263-1.8254,9.3065
		c-7.0491,23.317-30.4786,37.8806-57.0438,37.8806c-7.1381,0-14.5072-1.0528-21.8402-3.2696
		c-11.17-3.3769-20.891-9.0523-28.6516-16.1731c-2.3861,12.9034,7.493,35.7837,7.493,35.7837s25.5074-6.0783,33.8134-16.1605
		c-0.1326,2.8,0.2338,5.6704,1.1744,8.489c4.082,12.2329,32.4355,23.4343,32.4355,23.4343s15.9461-25.9831,11.8641-38.2162
		c-0.1136-0.3408-0.2371-0.6757-0.3649-1.0078c1.2339,0.9761,2.5842,1.8427,4.0461,2.5753
		c11.5293,5.7781,39.5139-6.3156,39.5139-6.3156S645.7156,403.2286,634.1863,397.4505z"/>
	<path d="M618.9727,344.8696c-2.847,0.7487-5.4478,1.9555-7.7703,3.4984c14.217,12.4074,22.2556,29.5742,21.0826,46.7811
		c13.8663-3.7535,28.3069-34.3313,28.3069-34.3313S632.8644,341.2166,618.9727,344.8696z"/>
	<path d="M461.5511,342.5257c3.5893-12.0182,9.2171-23.6546,17.1699-33.5542l0.0189-0.0234
		c0.1302-0.1621,0.1044-0.399-0.0577-0.5293c-0.1512-0.1214-0.3688-0.1058-0.5029,0.0282
		c-4.5669,4.596-8.3347,9.8651-11.713,15.3823c-3.3225,5.5495-6.1777,11.4035-8.4875,17.49
		c-2.2798,6.096-4.0086,12.417-5.1673,18.8559c-1.1164,6.4449-1.6964,12.9969-1.7151,19.5626
		c0.0609,3.276,0.0438,6.5728,0.3633,9.8431c0.1642,3.2903,0.6211,6.5444,1.0259,9.8172
		c1.0648,6.4878,2.6074,12.9301,5.0016,19.0421c1.1212,3.0858,2.4767,6.0679,3.8385,9.0381
		c0.3543,0.7365,0.6814,1.4845,1.0573,2.2092l1.1531,2.1604c0.7574,1.4438,1.5498,2.8688,2.3502,4.2852
		c1.6258,2.8191,3.4675,5.5131,5.2352,8.2229c1.938,2.6142,3.8947,5.2003,5.9799,7.6796c0.1354,0.1611,0.3759,0.1819,0.5371,0.0464
		c0.1254-0.1055,0.1657-0.2747,0.1134-0.4205l-0.0068-0.0183c-1.1054-3.0605-2.3798-5.992-3.5991-8.9357l-1.7277-4.4511
		c-0.5533-1.489-1.2398-2.9106-1.7471-4.4113c-0.5234-1.4932-1.0547-2.9779-1.6209-4.4437l-0.8327-2.2039
		c-0.2687-0.7373-0.4868-1.4936-0.7325-2.2383c-0.4787-1.494-1.008-2.965-1.5092-4.4452c-0.2672-0.7343-0.4997-1.4796-0.7014-2.2344
		l-0.6426-2.2502c-1.8763-5.9469-3.338-11.9688-4.8082-18.0031c-1.3981-6.0535-2.2765-12.2231-2.6968-18.4402
		c-0.3118-6.2198-0.0928-12.4701,0.6445-18.6732C458.4767,354.705,459.736,348.5417,461.5511,342.5257z"/>
	<path d="M582.1178,339.0391c-6.6182-2.0007-13.3875-3.0152-20.1201-3.0152c-24.6307,0-45.2685,13.5256-51.3544,33.6569
		c-3.8142,12.6164-1.6032,26.2885,6.2256,38.4978c8.0189,12.5058,20.9116,21.9556,36.303,26.6086
		c6.6183,2.0008,13.3877,3.0153,20.1202,3.0153c24.6307,0,45.2685-13.5257,51.3544-33.6569
		c3.8142-12.6164,1.6032-26.2885-6.2255-38.4979C610.402,353.142,597.5093,343.6922,582.1178,339.0391z"/>
	<path d="M562.8814,553.5685l0.1966-0.101c3.5753-2.1486,5.4608-5.2213,5.0435-8.2196c-0.3333-2.3928-2.0818-4.3893-4.9042-5.685
		c2.171-3.0135,1.9007-5.9773,0.7318-7.9513c-1.9771-3.3394-6.4774-4.6127-10.9811-3.1296
		c-1.9413,0.2914-5.2056,1.7089-11.9893,8.6384c3.9565-6.8434,5.7252-12.1943,5.3573-16.2076l-0.0349-0.2179
		c-0.9345-4.0649-3.2714-6.8101-6.252-7.3427c-2.3745-0.4196-4.8181,0.6191-6.9255,2.9006
		c-2.1918-2.9974-5.096-3.6581-7.3322-3.1592c-3.7863,0.8448-6.3926,4.7264-6.3785,9.4705
		c-0.3246,1.9369,0.0121,5.4808,4.4981,14.0759c-5.2808-5.8826-9.82-9.2222-13.7488-10.1158l-0.2174-0.0344
		c-4.1574-0.3701-7.4889,1.0002-8.9187,3.6685c-1.1408,2.1294-0.9049,4.7728,0.6122,7.4836
		c-3.5297,1.1548-5.0576,3.7086-5.2766,5.9917c-0.3705,3.8623,2.5129,7.5429,7.0279,9.0004
		c1.0107,0.5269,2.6028,1.0114,5.6327,1.0114c2.1868,0,5.1296-0.2551,9.1359-0.9257c-7.2254,3.1969-11.8054,6.4772-13.872,9.9349
		l-0.1001,0.197c-1.6405,3.8344-1.3698,7.4292,0.7243,9.6162c1.6706,1.745,4.2573,2.34,7.305,1.7371
		c0.0045,3.7142,1.9589,5.958,4.0626,6.8741c0.9081,0.3948,1.8699,0.5854,2.8466,0.5854c2.848-0.0008,5.8139-1.6184,7.8876-4.4789
		c1.4155-1.3856,3.2509-4.4861,4.6973-14.2729c0.8255,7.9994,2.5579,13.4477,5.248,16.5056l0.1563,0.1554
		c2.1669,1.8803,4.5021,2.8653,6.6344,2.8645c0.9677,0,1.8939-0.2026,2.7435-0.6158c2.1714-1.0579,3.5283-3.3394,3.886-6.425
		c3.538,1.1292,6.272-0.0449,7.7867-1.7682c2.5611-2.9134,2.3792-7.5853-0.4272-11.4108c-0.8794-1.7565-3.242-4.4233-11.9458-8.7298
		c3.9171,0.8319,7.3135,1.2621,10.1733,1.2621C558.7543,554.7504,561.0527,554.3557,562.8814,553.5685z M532.0568,556.0297
		c-4.3967,0-7.9609-3.5643-7.9609-7.9611c0-4.3967,3.5642-7.9611,7.9609-7.9611c4.3968,0,7.9612,3.5643,7.9612,7.9611
		C540.018,552.4655,536.4536,556.0297,532.0568,556.0297z"/>
	<path d="M369.7343,553.5685l0.1966-0.101c3.5752-2.1486,5.4608-5.2213,5.0435-8.2196c-0.3331-2.3928-2.0818-4.3893-4.9042-5.685
		c2.171-3.0135,1.9007-5.9773,0.7319-7.9513c-1.9772-3.3394-6.4774-4.6127-10.9812-3.1296
		c-1.9412,0.2914-5.2056,1.7089-11.9893,8.6384c3.9565-6.8434,5.7252-12.1943,5.3573-16.2076l-0.0348-0.2179
		c-0.9346-4.0649-3.2713-6.8101-6.252-7.3427c-2.3744-0.4196-4.8181,0.6191-6.9254,2.9006
		c-2.1919-2.9974-5.096-3.6581-7.3323-3.1592c-3.7863,0.8448-6.3925,4.7264-6.3785,9.4705
		c-0.3245,1.9369,0.0121,5.4808,4.4982,14.0759c-5.2808-5.8826-9.82-9.2222-13.7488-10.1158l-0.2174-0.0344
		c-4.1574-0.3701-7.4888,1.0002-8.9186,3.6685c-1.1408,2.1294-0.9049,4.7728,0.6122,7.4836
		c-3.5296,1.1548-5.0576,3.7086-5.2766,5.9917c-0.3704,3.8623,2.5129,7.5429,7.028,9.0004
		c1.0106,0.5269,2.6027,1.0114,5.6325,1.0114c2.1869,0,5.1297-0.2551,9.1358-0.9257c-7.2253,3.1969-11.8052,6.4772-13.8718,9.9349
		l-0.1001,0.197c-1.6405,3.8344-1.3698,7.4292,0.7243,9.6162c1.6705,1.745,4.2571,2.34,7.305,1.7371
		c0.0044,3.7142,1.9589,5.958,4.0626,6.8741c0.9081,0.3948,1.8699,0.5854,2.8465,0.5854c2.8481-0.0008,5.8139-1.6184,7.8877-4.4789
		c1.4155-1.3856,3.2509-4.4861,4.6974-14.2729c0.8256,7.9994,2.5579,13.4477,5.248,16.5056l0.1562,0.1554
		c2.167,1.8803,4.5022,2.8653,6.6343,2.8645c0.9678,0,1.894-0.2026,2.7437-0.6158c2.1714-1.0579,3.5284-3.3394,3.886-6.425
		c3.538,1.1292,6.272-0.0449,7.7867-1.7682c2.561-2.9134,2.3792-7.5853-0.4272-11.4108c-0.8795-1.7565-3.242-4.4233-11.9458-8.7298
		c3.917,0.8319,7.3134,1.2621,10.1731,1.2621C365.6073,554.7504,367.9056,554.3557,369.7343,553.5685z M338.9098,556.0297
		c-4.3967,0-7.961-3.5643-7.961-7.9611c0-4.3967,3.5643-7.9611,7.961-7.9611c4.3968,0,7.9611,3.5643,7.9611,7.9611
		C346.8709,552.4655,343.3066,556.0297,338.9098,556.0297z"/>
	
		<ellipse transform="matrix(0.5758 -0.8176 0.8176 0.5758 18.5359 574.4962)" cx="562.8851" cy="269.3858" rx="11.0515" ry="11.0515"/>
	<path d="M526.2931,277.9057c2.0062,5.1655,7.8201,7.7266,12.9857,5.7203s7.7265-7.8202,5.7202-12.9857
		c-2.0062-5.1655-7.8203-7.7266-12.9857-5.7203C526.8477,266.9262,524.2867,272.7401,526.2931,277.9057z"/>
	<path d="M595.2943,282.6364c4.9526-1.9236,7.4079-7.4977,5.4844-12.4502c-1.9236-4.9525-7.4978-7.4079-12.4503-5.4843
		c-4.9525,1.9236-7.408,7.4977-5.4843,12.4502C584.7676,282.1045,590.3419,284.5599,595.2943,282.6364z"/>
	<ellipse transform="matrix(0.53 -0.848 0.848 0.53 -2.0487 567.3981)" cx="510.8111" cy="285.5471" rx="8.5225" ry="8.5224"/>
	<path d="M614.4259,276.3146c-4.8353,1.8781-7.2327,7.3203-5.3545,12.1556c1.8779,4.8353,7.3203,7.2326,12.1555,5.3545
		c4.8353-1.878,7.2325-7.3203,5.3546-12.1555C624.7034,276.8339,619.2612,274.4366,614.4259,276.3146z"/>
	<path d="M485.9138,292.3694c-3.7222,1.4457-5.5676,5.6351-4.1218,9.3573c1.4456,3.7222,5.6351,5.5677,9.3574,4.1219
		c3.722-1.4457,5.5676-5.6352,4.1218-9.3574C493.8253,292.7692,489.636,290.9237,485.9138,292.3694z"/>
	<path d="M633.9129,292.0439c-3.4154,1.3265-5.1088,5.1706-3.7823,8.5859c1.3265,3.4153,5.1707,5.1086,8.586,3.7821
		c3.4154-1.3265,5.1087-5.1706,3.7822-8.5859C641.1722,292.4106,637.3281,290.7173,633.9129,292.0439z"/>
	
		<ellipse transform="matrix(0.8357 -0.5492 0.5492 0.8357 -178.9321 393.6565)" cx="568.405" cy="495.856" rx="11.0515" ry="11.0516"/>
	
		<ellipse transform="matrix(0.9036 -0.4284 0.4284 0.9036 -158.1465 279.1359)" cx="541.1658" cy="490.9689" rx="10.0338" ry="10.0337"/>
	<path d="M606.2985,495.0557c1.9235-4.9525-0.5318-10.5266-5.4843-12.4503c-4.9526-1.9235-10.5267,0.5318-12.4503,5.4843
		c-1.9236,4.9525,0.5318,10.5267,5.4843,12.4502C598.8008,502.4636,604.3749,500.0082,606.2985,495.0557z"/>
	<path d="M508.3867,476.6091c-1.7042,4.3875,0.4712,9.3258,4.8586,11.0299c4.3875,1.7041,9.3257-0.4712,11.0299-4.8587
		s-0.4713-9.3257-4.8586-11.0298C515.0291,470.0463,510.0909,472.2216,508.3867,476.6091z"/>
	
		<ellipse transform="matrix(0.3508 -0.9364 0.9364 0.3508 -44.9908 895.4449)" cx="623.3462" cy="480.1721" rx="9.3923" ry="9.3923"/>
	<path d="M491.4337,472.8724c3.722,1.4457,7.9116-0.3997,9.3572-4.1219c1.4456-3.7222-0.3997-7.9116-4.1219-9.3573
		c-3.7222-1.4457-7.9116,0.3997-9.3574,4.1219C485.866,467.2372,487.7114,471.4267,491.4337,472.8724z"/>
	<path d="M635.6506,464.6121c-1.3265,3.4153,0.3668,7.2594,3.782,8.5859c3.4153,1.3265,7.2595-0.3668,8.586-3.7821
		c1.3265-3.4154-0.3668-7.2594-3.7822-8.5859S636.9771,461.1967,635.6506,464.6121z"/>
	
		<ellipse transform="matrix(0.9845 -0.1756 0.1756 0.9845 -82.1679 61.2716)" cx="305.1124" cy="494.9007" rx="11.0515" ry="11.0515"/>
	
		<ellipse transform="matrix(0.9409 -0.3386 0.3386 0.9409 -146.2734 141.4608)" cx="332.3516" cy="490.0136" rx="10.0337" ry="10.0337"/>
	<path d="M285.1535,487.1345c-1.9236-4.9525-7.4977-7.408-12.4502-5.4843c-4.9525,1.9236-7.408,7.4977-5.4843,12.4502
		c1.9235,4.9525,7.4977,7.408,12.4502,5.4843C284.6217,497.6612,287.0771,492.087,285.1535,487.1345z"/>
	
		<ellipse transform="matrix(0.4031 -0.9151 0.9151 0.4031 -224.9197 612.6274)" cx="357.1864" cy="478.7394" rx="8.5224" ry="8.5224"/>
	
		<ellipse transform="matrix(0.9058 -0.4237 0.4237 0.9058 -179.4839 151.1454)" cx="250.1712" cy="479.2168" rx="9.3923" ry="9.3923"/>
	<path d="M382.0838,471.9171c3.7222-1.4458,5.5677-5.6352,4.1219-9.3574c-1.4458-3.7222-5.6352-5.5677-9.3574-4.1219
		c-3.7222,1.4457-5.5677,5.6351-4.1219,9.3573C374.1722,471.5173,378.3616,473.3628,382.0838,471.9171z"/>
	<ellipse transform="matrix(0.969 -0.247 0.247 0.969 -107.9483 71.6752)" cx="231.6828" cy="466.0586" rx="6.6341" ry="6.6341"/>
</g>
</svg>
